<svg xmlns="http://www.w3.org/2000/svg" xmlns:xlink="http://www.w3.org/1999/xlink" width="20" height="20" viewBox="0 0 20 20">
  <defs>
    <clipPath id="clip-aru_icon">
      <rect width="20" height="20"/>
    </clipPath>
  </defs>
  <g id="aru_icon" clip-path="url(#clip-aru_icon)">
    <path id="Path_122" data-name="Path 122" d="M93.594,877.539c0-.037-.022-.056-.022-.093a.647.647,0,0,1-.041-.184,1.177,1.177,0,0,0-.495-.574.616.616,0,0,0-.167-.094,1.328,1.328,0,0,0-.454-.15c-5.681-1.092-7.251-7.078-7.377-7.652v-.037a1.318,1.318,0,0,0-.328-.594,1.141,1.141,0,0,0-.167-.15,1.551,1.551,0,0,0-1.2-.277,1.389,1.389,0,0,0-.662.277,1.288,1.288,0,0,0-.164.15,1.2,1.2,0,0,0-.29.481c-.019.037-.019.073-.041.113v.037c-.123.574-1.674,6.56-7.377,7.652a1.152,1.152,0,0,0-.495.167.346.346,0,0,0-.1.077,1.122,1.122,0,0,0-.413.387,2.123,2.123,0,0,0-.145.371,1.064,1.064,0,0,0-.041.24v.04c.022.073.022.167.041.24a2.217,2.217,0,0,0,.145.37,1.377,1.377,0,0,0,.725.554,1.181,1.181,0,0,0,.246.077c.022,0,.063.017.085.017,5.681,1.111,7.21,7.061,7.333,7.635v.037c.022.04.022.076.041.113a1.318,1.318,0,0,0,.64.741c.063.037.145.074.227.11l.249.056a1.749,1.749,0,0,0,.268.037,1.444,1.444,0,0,0,.268-.037l.249-.056a2.171,2.171,0,0,0,.227-.11,1.3,1.3,0,0,0,.681-.854v-.037c.126-.574,1.674-6.523,7.336-7.635.022,0,.063-.017.082-.017a1.208,1.208,0,0,0,.249-.077,1.37,1.37,0,0,0,.722-.554,1.972,1.972,0,0,0,.145-.37.918.918,0,0,0,.041-.24C93.613,877.649,93.594,877.6,93.594,877.539Z" transform="translate(-73.613 -867.713)" fill="#844d26"/>
  </g>
</svg>
