<svg xmlns="http://www.w3.org/2000/svg" xmlns:xlink="http://www.w3.org/1999/xlink" width="406" height="200" viewBox="0 0 406 200">
  <defs>
    <clipPath id="clip-booking_sop-1">
      <rect width="406" height="200"/>
    </clipPath>
  </defs>
  <g id="booking_sop-1" clip-path="url(#clip-booking_sop-1)">
    <rect width="406" height="200" fill="#fff"/>
    <text id="_01" data-name="01" transform="translate(38 43)" fill="#050505" font-size="25" font-family="FelixTitlingMT, Felix Titling" letter-spacing="0.2em"><tspan x="-13.022" y="0">01</tspan></text>
    <text id="選_擇_款_式" data-name="選
擇
款
式" transform="translate(41 89)" fill="#050505" font-size="14" font-family="YuGothicUI-Regular, Yu Gothic UI" letter-spacing="0.5em"><tspan x="-7" y="0">選</tspan><tspan y="0" font-family="FelixTitlingMT, Felix Titling"></tspan><tspan x="-7" y="23">擇</tspan><tspan y="23" font-family="FelixTitlingMT, Felix Titling"></tspan><tspan x="-7" y="46">款</tspan><tspan y="46" font-family="FelixTitlingMT, Felix Titling"></tspan><tspan x="-7" y="69">式</tspan></text>
    <path id="Icon_map-location-arrow" data-name="Icon map-location-arrow" d="M36.867,55.19,28.609,30.544H1.773L53.381,1.581Z" transform="translate(107.031 120.321) rotate(-73)"/>
    <g id="Group_2" data-name="Group 2" transform="translate(96.728 42.217)">
      <g id="Group_1" data-name="Group 1" transform="translate(0 0)">
        <path id="Path_1" data-name="Path 1" d="M924.085,617.063a3.94,3.94,0,0,1-.551-.144,3.793,3.793,0,0,1,.984-.289h.057a.11.11,0,0,1,.088.028c.029,0,.029,0,.057.029.029,0,.029,0,.029.028a.15.15,0,0,1,.058.115.11.11,0,0,1,.028.088.276.276,0,0,1-.2.258h-.117A2.4,2.4,0,0,1,924.085,617.063Z" transform="translate(-900.327 -603.025)" fill="#956134"/>
        <path id="Path_2" data-name="Path 2" d="M924.139,616.749v.06a.11.11,0,0,0-.028-.089Z" transform="translate(-899.63 -602.915)" fill="#956134"/>
        <path id="Path_3" data-name="Path 3" d="M924.071,616.656l.029.028C924.1,616.656,924.1,616.656,924.071,616.656Z" transform="translate(-899.677 -602.994)" fill="#956134"/>
        <path id="Path_4" data-name="Path 4" d="M924.065,616.63l.029.028a.112.112,0,0,0-.089-.028Z" transform="translate(-899.757 -603.025)" fill="#956134"/>
        <path id="Path_5" data-name="Path 5" d="M930.563,623.9h-.057a3.824,3.824,0,0,0-.984.29c-7.379-2.055-10.157-9.636-10.937-12.473.173-.665.261-1.07.261-1.1C919.1,611.69,921.507,621.993,930.563,623.9Z" transform="translate(-906.315 -610.297)" fill="#956134"/>
        <path id="Path_6" data-name="Path 6" d="M930.427,616.941h.058c-9.143,1.941-11.516,12.414-11.717,13.34v-.058s-.031-.2-.117-.55c.579-2.343,3.214-10.909,11.344-12.847A2.38,2.38,0,0,0,930.427,616.941Z" transform="translate(-906.237 -602.788)" fill="#956134"/>
        <path id="Path_7" data-name="Path 7" d="M929.522,616.761a3.879,3.879,0,0,0,.551.144c-8.131,1.938-10.765,10.5-11.345,12.847-.029-.144-.086-.318-.144-.548C919.365,626.368,922.143,618.814,929.522,616.761Z" transform="translate(-906.315 -602.867)" fill="#956134"/>
        <path id="Path_8" data-name="Path 8" d="M924.574,611.117c.78,2.838,3.557,10.418,10.937,12.473-7.38,2.053-10.157,9.607-10.937,12.442-.811-2.835-3.561-10.389-10.938-12.442C921.013,621.535,923.763,613.955,924.574,611.117Z" transform="translate(-912.304 -609.696)" fill="#956134"/>
        <path id="Path_9" data-name="Path 9" d="M918.887,622.939c.086.35.117.551.117.551v.117a.224.224,0,0,1-.059.115l-.173.086-.029.029c-.029,0-.029-.029-.057-.029a.3.3,0,0,1-.232-.261v-.057a10.118,10.118,0,0,1,.29-1.1C918.8,622.621,918.858,622.8,918.887,622.939Z" transform="translate(-906.474 -596.054)" fill="#956134"/>
        <path id="Path_10" data-name="Path 10" d="M919.01,610.711v.086c0,.029-.088.433-.261,1.1a10.1,10.1,0,0,1-.289-1.1.2.2,0,0,1,.086-.232.149.149,0,0,1,.115-.057l.031-.029A.288.288,0,0,1,919.01,610.711Z" transform="translate(-906.48 -610.474)" fill="#956134"/>
        <path id="Path_11" data-name="Path 11" d="M918.614,623.079l.173-.086a.293.293,0,0,1-.2.115Z" transform="translate(-906.315 -595.326)" fill="#956134"/>
        <path id="Path_12" data-name="Path 12" d="M918.608,610.489a.15.15,0,0,0-.115.058A.15.15,0,0,1,918.608,610.489Z" transform="translate(-906.426 -610.456)" fill="#956134"/>
        <path id="Path_13" data-name="Path 13" d="M918.454,622.914a.3.3,0,0,0,.232.261.278.278,0,0,1-.232-.2Z" transform="translate(-906.474 -595.421)" fill="#956134"/>
        <path id="Path_14" data-name="Path 14" d="M924.855,610.62a10.051,10.051,0,0,0,.289,1.1c-.811,2.838-3.56,10.418-10.938,12.473a3.844,3.844,0,0,0-.985-.29h-.058C922.221,621.993,924.594,611.69,924.855,610.62Z" transform="translate(-912.875 -610.297)" fill="#956134"/>
        <path id="Path_15" data-name="Path 15" d="M925.145,629.2a10.092,10.092,0,0,0-.289,1.1v.058c-.2-.926-2.575-11.4-11.691-13.34h.058a5.548,5.548,0,0,0,.985-.259C921.585,618.814,924.333,626.368,925.145,629.2Z" transform="translate(-912.875 -602.867)" fill="#956134"/>
        <path id="Path_16" data-name="Path 16" d="M913.38,616.63a3.832,3.832,0,0,1,.986.289,5.572,5.572,0,0,1-.986.258h-.114c-.029,0-.086-.029-.086-.057a.1.1,0,0,1-.058-.029.243.243,0,0,1-.088-.172.279.279,0,0,1,.2-.261.106.106,0,0,1,.086-.028Z" transform="translate(-913.033 -603.025)" fill="#956134"/>
        <path id="Path_17" data-name="Path 17" d="M913.073,616.839a.1.1,0,0,0,.057.028C913.1,616.868,913.073,616.868,913.073,616.839Z" transform="translate(-912.985 -602.772)" fill="#956134"/>
        <path id="Path_18" data-name="Path 18" d="M913.033,616.844a.286.286,0,0,1,.2-.2.278.278,0,0,0-.2.261Z" transform="translate(-913.033 -603.009)" fill="#956134"/>
        <path id="Path_19" data-name="Path 19" d="M913.033,616.761a.243.243,0,0,0,.088.173c-.06-.029-.088-.058-.088-.115Z" transform="translate(-913.033 -602.867)" fill="#956134"/>
      </g>
    </g>
    <g id="Group_55" data-name="Group 55" transform="translate(83.728 115.217)">
      <g id="Group_1-2" data-name="Group 1" transform="translate(0 0)">
        <path id="Path_1-2" data-name="Path 1" d="M923.817,616.853a2.035,2.035,0,0,1-.283-.074,1.948,1.948,0,0,1,.506-.149h.029a.057.057,0,0,1,.045.015c.015,0,.015,0,.03.015s.015,0,.015.015a.077.077,0,0,1,.03.059.057.057,0,0,1,.015.045.142.142,0,0,1-.1.133h-.06A1.236,1.236,0,0,1,923.817,616.853Z" transform="translate(-911.603 -609.636)" fill="#956134"/>
        <path id="Path_2-2" data-name="Path 2" d="M924.125,616.736v.031a.057.057,0,0,0-.015-.046Z" transform="translate(-911.525 -609.624)" fill="#956134"/>
        <path id="Path_3-2" data-name="Path 3" d="M924.071,616.656l.015.015C924.086,616.656,924.086,616.656,924.071,616.656Z" transform="translate(-911.53 -609.632)" fill="#956134"/>
        <path id="Path_4-2" data-name="Path 4" d="M924.036,616.63l.015.015a.057.057,0,0,0-.046-.015Z" transform="translate(-911.539 -609.636)" fill="#956134"/>
        <path id="Path_5-2" data-name="Path 5" d="M924.743,617.448h-.029a1.967,1.967,0,0,0-.506.149c-3.793-1.056-5.222-4.954-5.623-6.412.089-.342.134-.55.134-.565C918.852,611.17,920.087,616.467,924.743,617.448Z" transform="translate(-912.277 -610.454)" fill="#956134"/>
        <path id="Path_6-2" data-name="Path 6" d="M924.7,616.885h.03c-4.7,1-5.92,6.382-6.024,6.858v-.03s-.016-.1-.06-.283c.3-1.2,1.652-5.608,5.832-6.6A1.222,1.222,0,0,0,924.7,616.885Z" transform="translate(-912.269 -609.609)" fill="#956134"/>
        <path id="Path_7-2" data-name="Path 7" d="M924.208,616.761a1.994,1.994,0,0,0,.283.074c-4.18,1-5.534,5.4-5.832,6.6-.015-.074-.044-.164-.074-.282C918.986,621.7,920.414,617.817,924.208,616.761Z" transform="translate(-912.277 -609.618)" fill="#956134"/>
        <path id="Path_8-2" data-name="Path 8" d="M919.259,611.117c.4,1.459,1.829,5.356,5.623,6.412-3.794,1.056-5.222,4.939-5.623,6.4-.417-1.457-1.831-5.341-5.623-6.4C917.429,616.473,918.842,612.576,919.259,611.117Z" transform="translate(-912.951 -610.387)" fill="#956134"/>
        <path id="Path_9-2" data-name="Path 9" d="M918.677,622.673c.044.18.06.283.06.283v.06a.115.115,0,0,1-.03.059l-.089.044-.015.015c-.015,0-.015-.015-.029-.015a.156.156,0,0,1-.12-.134v-.029a5.2,5.2,0,0,1,.149-.565C918.633,622.509,918.662,622.6,918.677,622.673Z" transform="translate(-912.295 -608.851)" fill="#956134"/>
        <path id="Path_10-2" data-name="Path 10" d="M918.738,610.6v.044c0,.015-.045.223-.134.565a5.182,5.182,0,0,1-.149-.565.1.1,0,0,1,.044-.119.077.077,0,0,1,.059-.03l.016-.015A.148.148,0,0,1,918.738,610.6Z" transform="translate(-912.296 -610.474)" fill="#956134"/>
        <path id="Path_11-2" data-name="Path 11" d="M918.6,623.037l.089-.044a.15.15,0,0,1-.1.059Z" transform="translate(-912.277 -608.77)" fill="#956134"/>
        <path id="Path_12-2" data-name="Path 12" d="M918.552,610.489a.077.077,0,0,0-.059.03A.077.077,0,0,1,918.552,610.489Z" transform="translate(-912.29 -610.472)" fill="#956134"/>
        <path id="Path_13-2" data-name="Path 13" d="M918.454,622.914a.156.156,0,0,0,.12.134.143.143,0,0,1-.12-.1Z" transform="translate(-912.295 -608.78)" fill="#956134"/>
        <path id="Path_14-2" data-name="Path 14" d="M919.174,610.62a5.162,5.162,0,0,0,.149.565c-.417,1.459-1.83,5.356-5.623,6.412a1.978,1.978,0,0,0-.506-.149h-.03C917.82,616.467,919.04,611.17,919.174,610.62Z" transform="translate(-913.016 -610.454)" fill="#956134"/>
        <path id="Path_15-2" data-name="Path 15" d="M919.323,623.158a5.186,5.186,0,0,0-.149.565v.03c-.1-.476-1.324-5.86-6.01-6.858h.03a2.855,2.855,0,0,0,.506-.133C917.493,617.817,918.906,621.7,919.323,623.158Z" transform="translate(-913.016 -609.618)" fill="#956134"/>
        <path id="Path_16-2" data-name="Path 16" d="M913.211,616.63a1.968,1.968,0,0,1,.507.149,2.872,2.872,0,0,1-.507.133h-.059c-.015,0-.044-.015-.044-.03a.052.052,0,0,1-.03-.015.125.125,0,0,1-.045-.089.143.143,0,0,1,.1-.134.055.055,0,0,1,.044-.015Z" transform="translate(-913.033 -609.636)" fill="#956134"/>
        <path id="Path_17-2" data-name="Path 17" d="M913.073,616.839a.05.05,0,0,0,.029.015C913.088,616.854,913.073,616.854,913.073,616.839Z" transform="translate(-913.028 -609.608)" fill="#956134"/>
        <path id="Path_18-2" data-name="Path 18" d="M913.033,616.746a.147.147,0,0,1,.1-.1.143.143,0,0,0-.1.134Z" transform="translate(-913.033 -609.634)" fill="#956134"/>
        <path id="Path_19-2" data-name="Path 19" d="M913.033,616.761a.125.125,0,0,0,.045.089c-.031-.015-.045-.03-.045-.059Z" transform="translate(-913.033 -609.618)" fill="#956134"/>
      </g>
    </g>
    <g id="Group_54" data-name="Group 54" transform="translate(170.672 113.219)">
      <g id="Group_1-3" data-name="Group 1" transform="translate(0 0)">
        <path id="Path_1-3" data-name="Path 1" d="M924.373,617.29a6,6,0,0,1-.839-.219,5.78,5.78,0,0,1,1.5-.441h.087a.168.168,0,0,1,.135.043c.045,0,.045,0,.087.044.044,0,.044,0,.044.043a.229.229,0,0,1,.088.176.168.168,0,0,1,.043.134.42.42,0,0,1-.306.393h-.178A3.65,3.65,0,0,1,924.373,617.29Z" transform="translate(-888.189 -595.909)" fill="#956134"/>
        <path id="Path_2-3" data-name="Path 2" d="M924.153,616.764v.092a.168.168,0,0,0-.043-.135Z" transform="translate(-886.826 -595.694)" fill="#956134"/>
        <path id="Path_3-3" data-name="Path 3" d="M924.071,616.656l.044.043C924.115,616.656,924.115,616.656,924.071,616.656Z" transform="translate(-886.918 -595.848)" fill="#956134"/>
        <path id="Path_4-3" data-name="Path 4" d="M924.1,616.63l.044.043a.17.17,0,0,0-.135-.043Z" transform="translate(-887.075 -595.909)" fill="#956134"/>
        <path id="Path_5-3" data-name="Path 5" d="M936.828,630.849h-.087a5.824,5.824,0,0,0-1.5.441c-11.238-3.13-15.469-14.675-16.658-19,.263-1.013.4-1.629.4-1.673C919.376,612.249,923.035,627.941,936.828,630.849Z" transform="translate(-899.897 -610.129)" fill="#956134"/>
        <path id="Path_6-3" data-name="Path 6" d="M936.587,617h.088c-13.925,2.956-17.54,18.907-17.846,20.317v-.088s-.048-.306-.179-.838c.881-3.568,4.894-16.614,17.277-19.566A3.624,3.624,0,0,0,936.587,617Z" transform="translate(-899.744 -595.446)" fill="#956134"/>
        <path id="Path_7-3" data-name="Path 7" d="M935.243,616.761a5.908,5.908,0,0,0,.839.219c-12.384,2.952-16.4,16-17.278,19.566-.044-.219-.131-.485-.219-.835C919.774,631.393,924,619.888,935.243,616.761Z" transform="translate(-899.897 -595.599)" fill="#956134"/>
        <path id="Path_8-3" data-name="Path 8" d="M930.295,611.117c1.188,4.322,5.418,15.867,16.658,19-11.24,3.127-15.469,14.632-16.658,18.95-1.235-4.318-5.423-15.823-16.659-18.95C924.872,626.984,929.06,615.439,930.295,611.117Z" transform="translate(-911.607 -608.953)" fill="#956134"/>
        <path id="Path_9-3" data-name="Path 9" d="M919.114,623.226c.131.533.178.839.178.839v.179a.341.341,0,0,1-.09.175l-.263.131-.044.044c-.044,0-.044-.044-.087-.044a.463.463,0,0,1-.354-.4v-.087a15.422,15.422,0,0,1,.441-1.673C918.984,622.741,919.07,623.007,919.114,623.226Z" transform="translate(-900.208 -582.279)" fill="#956134"/>
        <path id="Path_10-3" data-name="Path 10" d="M919.3,610.834v.131c0,.044-.135.659-.4,1.673a15.374,15.374,0,0,1-.44-1.673.3.3,0,0,1,.131-.353.227.227,0,0,1,.175-.088l.048-.044A.439.439,0,0,1,919.3,610.834Z" transform="translate(-900.22 -610.474)" fill="#956134"/>
        <path id="Path_11-3" data-name="Path 11" d="M918.629,623.124l.263-.131a.446.446,0,0,1-.307.175Z" transform="translate(-899.897 -580.855)" fill="#956134"/>
        <path id="Path_12-3" data-name="Path 12" d="M918.669,610.489a.229.229,0,0,0-.176.088A.229.229,0,0,1,918.669,610.489Z" transform="translate(-900.115 -610.438)" fill="#956134"/>
        <path id="Path_13-3" data-name="Path 13" d="M918.454,622.914a.463.463,0,0,0,.354.4.423.423,0,0,1-.354-.307Z" transform="translate(-900.208 -581.042)" fill="#956134"/>
        <path id="Path_14-3" data-name="Path 14" d="M930.97,610.62a15.285,15.285,0,0,0,.441,1.673c-1.235,4.322-5.422,15.867-16.658,19a5.852,5.852,0,0,0-1.5-.441h-.088C926.958,627.941,930.573,612.249,930.97,610.62Z" transform="translate(-912.724 -610.129)" fill="#956134"/>
        <path id="Path_15-3" data-name="Path 15" d="M931.411,635.711a15.346,15.346,0,0,0-.441,1.673v.088c-.309-1.41-3.922-17.362-17.806-20.317h.088a8.44,8.44,0,0,0,1.5-.394C925.989,619.888,930.175,631.393,931.411,635.711Z" transform="translate(-912.724 -595.599)" fill="#956134"/>
        <path id="Path_16-3" data-name="Path 16" d="M913.561,616.63a5.839,5.839,0,0,1,1.5.441,8.471,8.471,0,0,1-1.5.393h-.174c-.044,0-.132-.043-.132-.087a.155.155,0,0,1-.088-.044.37.37,0,0,1-.134-.262.425.425,0,0,1,.31-.4.162.162,0,0,1,.131-.043Z" transform="translate(-913.033 -595.909)" fill="#956134"/>
        <path id="Path_17-3" data-name="Path 17" d="M913.073,616.839a.149.149,0,0,0,.087.043C913.116,616.883,913.073,616.883,913.073,616.839Z" transform="translate(-912.939 -595.415)" fill="#956134"/>
        <path id="Path_18-3" data-name="Path 18" d="M913.033,616.949a.435.435,0,0,1,.31-.306.424.424,0,0,0-.31.4Z" transform="translate(-913.033 -595.878)" fill="#956134"/>
        <path id="Path_19-3" data-name="Path 19" d="M913.033,616.761a.371.371,0,0,0,.134.263c-.091-.044-.134-.088-.134-.175Z" transform="translate(-913.033 -595.599)" fill="#956134"/>
      </g>
    </g>
    <line id="Line_2" data-name="Line 2" x1="34" transform="translate(23.5 56.5)" fill="none" stroke="#707070" stroke-width="1"/>
    <text id="依據工作坊的精選款式做課程選擇_" data-name="依據工作坊的精選款式做課程選擇。" transform="translate(235 86)" fill="#050505" font-size="12" font-family="YuGothicUI-Regular, Yu Gothic UI" letter-spacing="0.5em"><tspan x="0" y="13">依據工作坊的精選</tspan><tspan x="0" y="36">款式做課程選擇。</tspan></text>
  </g>
</svg>
