<svg xmlns="http://www.w3.org/2000/svg" xmlns:xlink="http://www.w3.org/1999/xlink" width="406" height="200" viewBox="0 0 406 200">
  <defs>
    <clipPath id="clip-booking_sop-2">
      <rect width="406" height="200"/>
    </clipPath>
  </defs>
  <g id="booking_sop-2" clip-path="url(#clip-booking_sop-2)">
    <rect width="406" height="200" fill="#fff"/>
    <text id="_02" data-name="02" transform="translate(38 43)" fill="#050505" font-size="25" font-family="FelixTitlingMT, Felix Titling" letter-spacing="0.2em"><tspan x="-16.55" y="0">02</tspan></text>
    <text id="時_程_確_認" data-name="時
程
確
認" transform="translate(41 89)" fill="#050505" font-size="14" font-family="YuGothicUI-Regular, Yu Gothic UI" letter-spacing="0.5em"><tspan x="-7" y="0">時</tspan><tspan y="0" font-family="FelixTitlingMT, Felix Titling"></tspan><tspan x="-7" y="23">程</tspan><tspan y="23" font-family="FelixTitlingMT, Felix Titling"></tspan><tspan x="-7" y="46">確</tspan><tspan y="46" font-family="FelixTitlingMT, Felix Titling"></tspan><tspan x="-7" y="69">認</tspan></text>
    <line id="Line_2" data-name="Line 2" x1="34" transform="translate(23.5 56.5)" fill="none" stroke="#707070" stroke-width="1"/>
    <text id="根據該課程的開放日期做選擇_" data-name="根據該課程的開放日期做選擇。" transform="translate(248 86)" fill="#050505" font-size="12" font-family="YuGothicUI-Regular, Yu Gothic UI" letter-spacing="0.5em"><tspan x="0" y="13">根據該課程的開</tspan><tspan x="0" y="36">放日期做選擇。</tspan></text>
    <path id="Icon_awesome-calendar-check" data-name="Icon awesome-calendar-check" d="M77.857,28.571H2.143A2.143,2.143,0,0,1,0,26.429V20a8.571,8.571,0,0,1,8.571-8.571h8.571V2.143A2.143,2.143,0,0,1,19.286,0h7.143a2.143,2.143,0,0,1,2.143,2.143v9.286H51.429V2.143A2.143,2.143,0,0,1,53.571,0h7.143a2.143,2.143,0,0,1,2.143,2.143v9.286h8.571A8.571,8.571,0,0,1,80,20v6.429A2.143,2.143,0,0,1,77.857,28.571ZM2.143,34.286H77.857A2.143,2.143,0,0,1,80,36.429V82.857a8.571,8.571,0,0,1-8.571,8.571H8.571A8.571,8.571,0,0,1,0,82.857V36.429A2.143,2.143,0,0,1,2.143,34.286ZM61.66,51.419l-5.03-5.071a2.143,2.143,0,0,0-3.03-.012L34.664,65.119l-8.211-8.277a2.143,2.143,0,0,0-3.031-.012l-5.071,5.03a2.143,2.143,0,0,0-.012,3.03L33.09,79.76a2.143,2.143,0,0,0,3.03.012l4.514-4.478L61.648,54.449a2.143,2.143,0,0,0,.012-3.03Z" transform="translate(123 57)"/>
    <g id="Group_56" data-name="Group 56" transform="translate(205.728 151.217)">
      <g id="Group_1" data-name="Group 1" transform="translate(0 0)">
        <path id="Path_1" data-name="Path 1" d="M923.817,616.853a2.035,2.035,0,0,1-.283-.074,1.948,1.948,0,0,1,.506-.149h.029a.057.057,0,0,1,.045.015c.015,0,.015,0,.03.015s.015,0,.015.015a.077.077,0,0,1,.03.059.057.057,0,0,1,.015.045.142.142,0,0,1-.1.133h-.06A1.236,1.236,0,0,1,923.817,616.853Z" transform="translate(-911.603 -609.636)" fill="#956134"/>
        <path id="Path_2" data-name="Path 2" d="M924.125,616.736v.031a.057.057,0,0,0-.015-.046Z" transform="translate(-911.525 -609.624)" fill="#956134"/>
        <path id="Path_3" data-name="Path 3" d="M924.071,616.656l.015.015C924.086,616.656,924.086,616.656,924.071,616.656Z" transform="translate(-911.53 -609.632)" fill="#956134"/>
        <path id="Path_4" data-name="Path 4" d="M924.036,616.63l.015.015a.057.057,0,0,0-.046-.015Z" transform="translate(-911.539 -609.636)" fill="#956134"/>
        <path id="Path_5" data-name="Path 5" d="M924.743,617.448h-.029a1.967,1.967,0,0,0-.506.149c-3.793-1.056-5.222-4.954-5.623-6.412.089-.342.134-.55.134-.565C918.852,611.17,920.087,616.467,924.743,617.448Z" transform="translate(-912.277 -610.454)" fill="#956134"/>
        <path id="Path_6" data-name="Path 6" d="M924.7,616.885h.03c-4.7,1-5.92,6.382-6.024,6.858v-.03s-.016-.1-.06-.283c.3-1.2,1.652-5.608,5.832-6.6A1.222,1.222,0,0,0,924.7,616.885Z" transform="translate(-912.269 -609.609)" fill="#956134"/>
        <path id="Path_7" data-name="Path 7" d="M924.208,616.761a1.994,1.994,0,0,0,.283.074c-4.18,1-5.534,5.4-5.832,6.6-.015-.074-.044-.164-.074-.282C918.986,621.7,920.414,617.817,924.208,616.761Z" transform="translate(-912.277 -609.618)" fill="#956134"/>
        <path id="Path_8" data-name="Path 8" d="M919.259,611.117c.4,1.459,1.829,5.356,5.623,6.412-3.794,1.056-5.222,4.939-5.623,6.4-.417-1.457-1.831-5.341-5.623-6.4C917.429,616.473,918.842,612.576,919.259,611.117Z" transform="translate(-912.951 -610.387)" fill="#956134"/>
        <path id="Path_9" data-name="Path 9" d="M918.677,622.673c.044.18.06.283.06.283v.06a.115.115,0,0,1-.03.059l-.089.044-.015.015c-.015,0-.015-.015-.029-.015a.156.156,0,0,1-.12-.134v-.029a5.2,5.2,0,0,1,.149-.565C918.633,622.509,918.662,622.6,918.677,622.673Z" transform="translate(-912.295 -608.851)" fill="#956134"/>
        <path id="Path_10" data-name="Path 10" d="M918.738,610.6v.044c0,.015-.045.223-.134.565a5.182,5.182,0,0,1-.149-.565.1.1,0,0,1,.044-.119.077.077,0,0,1,.059-.03l.016-.015A.148.148,0,0,1,918.738,610.6Z" transform="translate(-912.296 -610.474)" fill="#956134"/>
        <path id="Path_11" data-name="Path 11" d="M918.6,623.037l.089-.044a.15.15,0,0,1-.1.059Z" transform="translate(-912.277 -608.77)" fill="#956134"/>
        <path id="Path_12" data-name="Path 12" d="M918.552,610.489a.077.077,0,0,0-.059.03A.077.077,0,0,1,918.552,610.489Z" transform="translate(-912.29 -610.472)" fill="#956134"/>
        <path id="Path_13" data-name="Path 13" d="M918.454,622.914a.156.156,0,0,0,.12.134.143.143,0,0,1-.12-.1Z" transform="translate(-912.295 -608.78)" fill="#956134"/>
        <path id="Path_14" data-name="Path 14" d="M919.174,610.62a5.162,5.162,0,0,0,.149.565c-.417,1.459-1.83,5.356-5.623,6.412a1.978,1.978,0,0,0-.506-.149h-.03C917.82,616.467,919.04,611.17,919.174,610.62Z" transform="translate(-913.016 -610.454)" fill="#956134"/>
        <path id="Path_15" data-name="Path 15" d="M919.323,623.158a5.186,5.186,0,0,0-.149.565v.03c-.1-.476-1.324-5.86-6.01-6.858h.03a2.855,2.855,0,0,0,.506-.133C917.493,617.817,918.906,621.7,919.323,623.158Z" transform="translate(-913.016 -609.618)" fill="#956134"/>
        <path id="Path_16" data-name="Path 16" d="M913.211,616.63a1.968,1.968,0,0,1,.507.149,2.872,2.872,0,0,1-.507.133h-.059c-.015,0-.044-.015-.044-.03a.052.052,0,0,1-.03-.015.125.125,0,0,1-.045-.089.143.143,0,0,1,.1-.134.055.055,0,0,1,.044-.015Z" transform="translate(-913.033 -609.636)" fill="#956134"/>
        <path id="Path_17" data-name="Path 17" d="M913.073,616.839a.05.05,0,0,0,.029.015C913.088,616.854,913.073,616.854,913.073,616.839Z" transform="translate(-913.028 -609.608)" fill="#956134"/>
        <path id="Path_18" data-name="Path 18" d="M913.033,616.746a.147.147,0,0,1,.1-.1.143.143,0,0,0-.1.134Z" transform="translate(-913.033 -609.634)" fill="#956134"/>
        <path id="Path_19" data-name="Path 19" d="M913.033,616.761a.125.125,0,0,0,.045.089c-.031-.015-.045-.03-.045-.059Z" transform="translate(-913.033 -609.618)" fill="#956134"/>
      </g>
    </g>
    <g id="Group_57" data-name="Group 57" transform="translate(102.728 46.217)">
      <g id="Group_1-2" data-name="Group 1" transform="translate(0 0)">
        <path id="Path_1-2" data-name="Path 1" d="M923.926,616.939a2.817,2.817,0,0,1-.392-.1,2.7,2.7,0,0,1,.7-.206h.041a.078.078,0,0,1,.063.02c.021,0,.021,0,.041.021.021,0,.021,0,.021.02a.107.107,0,0,1,.041.082.078.078,0,0,1,.02.063.2.2,0,0,1-.143.184h-.083A1.708,1.708,0,0,1,923.926,616.939Z" transform="translate(-907.009 -606.943)" fill="#956134"/>
        <path id="Path_2-2" data-name="Path 2" d="M924.13,616.741v.043a.079.079,0,0,0-.02-.063Z" transform="translate(-906.679 -606.891)" fill="#956134"/>
        <path id="Path_3-2" data-name="Path 3" d="M924.071,616.656l.021.02C924.092,616.656,924.092,616.656,924.071,616.656Z" transform="translate(-906.701 -606.928)" fill="#956134"/>
        <path id="Path_4-2" data-name="Path 4" d="M924.048,616.63l.021.02a.08.08,0,0,0-.063-.02Z" transform="translate(-906.739 -606.943)" fill="#956134"/>
        <path id="Path_5-2" data-name="Path 5" d="M927.114,620.078h-.041a2.725,2.725,0,0,0-.7.206c-5.254-1.463-7.232-6.861-7.788-8.882.123-.474.186-.762.186-.782C918.955,611.382,920.666,618.718,927.114,620.078Z" transform="translate(-909.848 -610.39)" fill="#956134"/>
        <path id="Path_6-2" data-name="Path 6" d="M927.036,616.908h.041c-6.51,1.382-8.2,8.839-8.343,9.5v-.041s-.022-.143-.083-.392c.412-1.668,2.288-7.768,8.078-9.148A1.7,1.7,0,0,0,927.036,616.908Z" transform="translate(-909.811 -606.83)" fill="#956134"/>
        <path id="Path_7-2" data-name="Path 7" d="M926.373,616.761a2.764,2.764,0,0,0,.392.1c-5.79,1.38-7.665,7.479-8.078,9.148-.021-.1-.061-.227-.1-.39C919.141,623.6,921.119,618.223,926.373,616.761Z" transform="translate(-909.848 -606.867)" fill="#956134"/>
        <path id="Path_8-2" data-name="Path 8" d="M921.424,611.117c.556,2.021,2.533,7.418,7.788,8.882-5.255,1.462-7.232,6.841-7.788,8.859-.578-2.019-2.535-7.4-7.788-8.859C918.889,618.535,920.847,613.138,921.424,611.117Z" transform="translate(-912.687 -610.105)" fill="#956134"/>
        <path id="Path_9-2" data-name="Path 9" d="M918.763,622.781c.061.249.083.392.083.392v.083a.16.16,0,0,1-.042.082l-.123.061-.021.021c-.021,0-.021-.021-.041-.021a.216.216,0,0,1-.166-.186v-.041a7.2,7.2,0,0,1,.206-.782C918.7,622.555,918.742,622.679,918.763,622.781Z" transform="translate(-909.923 -603.638)" fill="#956134"/>
        <path id="Path_10-2" data-name="Path 10" d="M918.849,610.643v.061c0,.021-.063.308-.186.782a7.173,7.173,0,0,1-.206-.782.139.139,0,0,1,.061-.165.106.106,0,0,1,.082-.041l.022-.021A.205.205,0,0,1,918.849,610.643Z" transform="translate(-909.927 -610.474)" fill="#956134"/>
        <path id="Path_11-2" data-name="Path 11" d="M918.606,623.054l.123-.061a.208.208,0,0,1-.144.082Z" transform="translate(-909.848 -603.293)" fill="#956134"/>
        <path id="Path_12-2" data-name="Path 12" d="M918.575,610.489a.107.107,0,0,0-.082.041A.107.107,0,0,1,918.575,610.489Z" transform="translate(-909.901 -610.465)" fill="#956134"/>
        <path id="Path_13-2" data-name="Path 13" d="M918.454,622.914a.217.217,0,0,0,.166.186.2.2,0,0,1-.166-.143Z" transform="translate(-909.923 -603.338)" fill="#956134"/>
        <path id="Path_14-2" data-name="Path 14" d="M921.489,610.62a7.131,7.131,0,0,0,.206.782c-.578,2.021-2.535,7.418-7.788,8.882a2.74,2.74,0,0,0-.7-.206h-.041C919.613,618.718,921.3,611.382,921.489,610.62Z" transform="translate(-912.958 -610.39)" fill="#956134"/>
        <path id="Path_15-2" data-name="Path 15" d="M921.695,625.621a7.172,7.172,0,0,0-.206.782v.041c-.145-.659-1.834-8.117-8.325-9.5h.041a3.961,3.961,0,0,0,.7-.184C919.16,618.223,921.117,623.6,921.695,625.621Z" transform="translate(-912.958 -606.867)" fill="#956134"/>
        <path id="Path_16-2" data-name="Path 16" d="M913.28,616.63a2.725,2.725,0,0,1,.7.206,3.975,3.975,0,0,1-.7.184H913.2c-.021,0-.062-.02-.062-.041a.073.073,0,0,1-.041-.02.174.174,0,0,1-.063-.123.2.2,0,0,1,.145-.186.076.076,0,0,1,.061-.02Z" transform="translate(-913.033 -606.943)" fill="#956134"/>
        <path id="Path_17-2" data-name="Path 17" d="M913.073,616.839a.069.069,0,0,0,.041.02C913.093,616.859,913.073,616.859,913.073,616.839Z" transform="translate(-913.01 -606.823)" fill="#956134"/>
        <path id="Path_18-2" data-name="Path 18" d="M913.033,616.786a.2.2,0,0,1,.145-.143.2.2,0,0,0-.145.186Z" transform="translate(-913.033 -606.935)" fill="#956134"/>
        <path id="Path_19-2" data-name="Path 19" d="M913.033,616.761a.174.174,0,0,0,.063.123c-.042-.021-.063-.041-.063-.082Z" transform="translate(-913.033 -606.867)" fill="#956134"/>
      </g>
    </g>
  </g>
</svg>
