<svg xmlns="http://www.w3.org/2000/svg" xmlns:xlink="http://www.w3.org/1999/xlink" width="20" height="20" viewBox="0 0 20 20">
  <defs>
    <clipPath id="clip-ig_logo_footer">
      <rect width="20" height="20"/>
    </clipPath>
  </defs>
  <g id="ig_logo_footer" clip-path="url(#clip-ig_logo_footer)">
    <g id="Icon_feather-instagram" data-name="Icon feather-instagram" transform="translate(1 1)">
      <path id="Path_93" data-name="Path 93" d="M7.281,3h8.563a4.281,4.281,0,0,1,4.281,4.281v8.563a4.281,4.281,0,0,1-4.281,4.281H7.281A4.281,4.281,0,0,1,3,15.844V7.281A4.281,4.281,0,0,1,7.281,3Z" transform="translate(-3 -3)" fill="none" stroke="#fff" stroke-linecap="round" stroke-linejoin="round" stroke-width="2"/>
      <path id="Path_94" data-name="Path 94" d="M18.878,14.858a3.425,3.425,0,1,1-2.886-2.886A3.425,3.425,0,0,1,18.878,14.858Z" transform="translate(-6.89 -6.835)" fill="none" stroke="#fff" stroke-linecap="round" stroke-linejoin="round" stroke-width="2"/>
      <path id="Path_95" data-name="Path 95" d="M26.25,9.75h0" transform="translate(-12.978 -5.897)" fill="none" stroke="#fff" stroke-linecap="round" stroke-linejoin="round" stroke-width="2"/>
    </g>
  </g>
</svg>
