<svg xmlns="http://www.w3.org/2000/svg" xmlns:xlink="http://www.w3.org/1999/xlink" width="30" height="31" viewBox="0 0 30 31">
  <defs>
    <clipPath id="clip-ig_logo">
      <rect width="30" height="31"/>
    </clipPath>
  </defs>
  <g id="ig_logo" clip-path="url(#clip-ig_logo)">
    <g id="Icon_feather-instagram" data-name="Icon feather-instagram" transform="translate(2.067 2.311)">
      <path id="Path_93" data-name="Path 93" d="M9.406,3H22.217a6.406,6.406,0,0,1,6.406,6.406V22.217a6.406,6.406,0,0,1-6.406,6.406H9.406A6.406,6.406,0,0,1,3,22.217V9.406A6.406,6.406,0,0,1,9.406,3Z" transform="translate(-3 -3)" fill="none" stroke="#956134" stroke-linecap="round" stroke-linejoin="round" stroke-width="3"/>
      <path id="Path_94" data-name="Path 94" d="M22.258,16.308a5.125,5.125,0,1,1-4.317-4.317A5.125,5.125,0,0,1,22.258,16.308Z" transform="translate(-4.323 -4.304)" fill="none" stroke="#956134" stroke-linecap="round" stroke-linejoin="round" stroke-width="3"/>
      <path id="Path_95" data-name="Path 95" d="M26.25,9.75h0" transform="translate(-6.393 -3.985)" fill="none" stroke="#956134" stroke-linecap="round" stroke-linejoin="round" stroke-width="3"/>
    </g>
  </g>
</svg>
