<svg xmlns="http://www.w3.org/2000/svg" xmlns:xlink="http://www.w3.org/1999/xlink" width="98" height="173" viewBox="0 0 98 173">
  <defs>
    <clipPath id="clip-logo">
      <rect width="98" height="173"/>
    </clipPath>
  </defs>
  <g id="logo" clip-path="url(#clip-logo)">
    <g id="Group_41" data-name="Group 41" transform="translate(-841.819 -490.259)">
      <g id="Group_2" data-name="Group 2" transform="translate(889.547 571.476)">
        <g id="Group_1" data-name="Group 1" transform="translate(0 0)">
          <path id="Path_1" data-name="Path 1" d="M923.7,616.762a1.2,1.2,0,0,1-.168-.044,1.152,1.152,0,0,1,.3-.088h.017a.033.033,0,0,1,.027.009c.009,0,.009,0,.017.009s.009,0,.009.009a.046.046,0,0,1,.018.035.034.034,0,0,1,.009.027.084.084,0,0,1-.061.079h-.036A.732.732,0,0,1,923.7,616.762Z" transform="translate(-916.476 -612.492)" fill="#956134"/>
          <path id="Path_2" data-name="Path 2" d="M924.119,616.73v.018a.034.034,0,0,0-.009-.027Z" transform="translate(-916.665 -612.522)" fill="#956134"/>
          <path id="Path_3" data-name="Path 3" d="M924.071,616.656l.009.009C924.08,616.656,924.08,616.656,924.071,616.656Z" transform="translate(-916.652 -612.501)" fill="#956134"/>
          <path id="Path_4" data-name="Path 4" d="M924.023,616.63l.009.009a.034.034,0,0,0-.027-.009Z" transform="translate(-916.631 -612.492)" fill="#956134"/>
          <path id="Path_5" data-name="Path 5" d="M922.228,614.659h-.017a1.163,1.163,0,0,0-.3.088c-2.244-.625-3.089-2.93-3.326-3.793.052-.2.079-.325.079-.334C918.743,610.945,919.474,614.079,922.228,614.659Z" transform="translate(-914.853 -610.522)" fill="#956134"/>
          <path id="Path_6" data-name="Path 6" d="M922.232,616.861h.018c-2.781.59-3.5,3.775-3.563,4.057V620.9s-.01-.061-.036-.167c.176-.712.977-3.318,3.45-3.907A.727.727,0,0,0,922.232,616.861Z" transform="translate(-914.875 -612.557)" fill="#956134"/>
          <path id="Path_7" data-name="Path 7" d="M921.911,616.761a1.185,1.185,0,0,0,.168.044c-2.473.589-3.274,3.194-3.45,3.907-.009-.044-.026-.1-.044-.167C918.822,619.683,919.667,617.385,921.911,616.761Z" transform="translate(-914.853 -612.535)" fill="#956134"/>
          <path id="Path_8" data-name="Path 8" d="M916.962,611.117c.237.863,1.082,3.168,3.326,3.793-2.244.624-3.089,2.922-3.326,3.784-.247-.862-1.083-3.159-3.326-3.784C915.879,614.285,916.716,611.98,916.962,611.117Z" transform="translate(-913.231 -610.685)" fill="#956134"/>
          <path id="Path_9" data-name="Path 9" d="M918.586,622.558c.026.106.036.167.036.167v.036a.068.068,0,0,1-.018.035l-.052.026-.009.009c-.009,0-.009-.009-.017-.009a.092.092,0,0,1-.071-.079v-.017a3.075,3.075,0,0,1,.088-.334C918.56,622.461,918.577,622.514,918.586,622.558Z" transform="translate(-914.81 -614.381)" fill="#956134"/>
          <path id="Path_10" data-name="Path 10" d="M918.62,610.546v.026c0,.009-.027.132-.079.334a3.06,3.06,0,0,1-.088-.334.06.06,0,0,1,.026-.071.046.046,0,0,1,.035-.017l.01-.009A.088.088,0,0,1,918.62,610.546Z" transform="translate(-914.809 -610.474)" fill="#956134"/>
          <path id="Path_11" data-name="Path 11" d="M918.594,623.019l.052-.026a.089.089,0,0,1-.061.035Z" transform="translate(-914.853 -614.579)" fill="#956134"/>
          <path id="Path_12" data-name="Path 12" d="M918.528,610.489a.046.046,0,0,0-.035.018A.046.046,0,0,1,918.528,610.489Z" transform="translate(-914.823 -610.479)" fill="#956134"/>
          <path id="Path_13" data-name="Path 13" d="M918.454,622.914a.092.092,0,0,0,.071.079.084.084,0,0,1-.071-.061Z" transform="translate(-914.81 -614.553)" fill="#956134"/>
          <path id="Path_14" data-name="Path 14" d="M916.719,610.62a3.051,3.051,0,0,0,.088.334c-.247.863-1.083,3.168-3.326,3.793a1.17,1.17,0,0,0-.3-.088h-.018C915.918,614.079,916.64,610.945,916.719,610.62Z" transform="translate(-913.076 -610.522)" fill="#956134"/>
          <path id="Path_15" data-name="Path 15" d="M916.807,620.545a3.059,3.059,0,0,0-.088.334v.018c-.062-.282-.783-3.467-3.555-4.057h.018a1.69,1.69,0,0,0,.3-.079C915.725,617.385,916.561,619.683,916.807,620.545Z" transform="translate(-913.076 -612.535)" fill="#956134"/>
          <path id="Path_16" data-name="Path 16" d="M913.138,616.63a1.164,1.164,0,0,1,.3.088,1.7,1.7,0,0,1-.3.079H913.1c-.009,0-.026-.009-.026-.017a.031.031,0,0,1-.018-.009.074.074,0,0,1-.027-.052.085.085,0,0,1,.062-.079.032.032,0,0,1,.026-.009Z" transform="translate(-913.033 -612.492)" fill="#956134"/>
          <path id="Path_17" data-name="Path 17" d="M913.073,616.839a.03.03,0,0,0,.017.009C913.082,616.848,913.073,616.848,913.073,616.839Z" transform="translate(-913.046 -612.561)" fill="#956134"/>
          <path id="Path_18" data-name="Path 18" d="M913.033,616.7a.087.087,0,0,1,.062-.061.085.085,0,0,0-.062.079Z" transform="translate(-913.033 -612.497)" fill="#956134"/>
          <path id="Path_19" data-name="Path 19" d="M913.033,616.761a.074.074,0,0,0,.027.052c-.018-.009-.027-.018-.027-.035Z" transform="translate(-913.033 -612.535)" fill="#956134"/>
        </g>
      </g>
      <g id="Group_3" data-name="Group 3" transform="translate(841.405 551.12)">
        <path id="Path_20" data-name="Path 20" d="M841.594,642.078l-.189-.169,4.384-4.888c.919-1.026.919-4.46,0-5.485l-1.848-2.061c-1-1.116-1-4.709,0-5.825l1.848-2.061c.919-1.025.919-4.459,0-5.485l-1.848-2.061c-1-1.116-1-4.708,0-5.824l1.848-2.061c.919-1.026.919-4.46,0-5.486l-1.848-2.06c-1-1.116-1-4.709,0-5.824l1.848-2.061c.919-1.026.919-4.46,0-5.485l-4.384-4.888.189-.169,4.384,4.888c1,1.116,1,4.709,0,5.824l-1.848,2.061c-.92,1.026-.92,4.459,0,5.485l1.848,2.061c1,1.116,1,4.709,0,5.825l-1.848,2.061c-.92,1.026-.92,4.459,0,5.485l1.848,2.061c1,1.116,1,4.708,0,5.825l-1.848,2.061c-.92,1.025-.92,4.459,0,5.484l1.848,2.061c1,1.116,1,4.709,0,5.825Z" transform="translate(-841.405 -580.186)" fill="none" stroke="#956134" stroke-miterlimit="10" stroke-width="0.25"/>
        <path id="Path_21" data-name="Path 21" d="M849.269,642.078l-4.384-4.888c-1-1.116-1-4.709,0-5.825l1.848-2.061c.92-1.025.92-4.459,0-5.484l-1.848-2.061c-1-1.116-1-4.709,0-5.825l1.848-2.061c.92-1.025.92-4.459,0-5.485l-1.848-2.061c-1-1.116-1-4.709,0-5.825l1.848-2.061c.92-1.026.92-4.459,0-5.485l-1.848-2.061c-1-1.116-1-4.708,0-5.824l4.384-4.888.19.169-4.384,4.888c-.92,1.025-.92,4.459,0,5.485l1.848,2.061c1,1.116,1,4.708,0,5.824l-1.848,2.06c-.92,1.026-.92,4.46,0,5.486l1.848,2.061c1,1.116,1,4.708,0,5.824l-1.848,2.061c-.92,1.026-.92,4.46,0,5.485l1.848,2.061c1,1.116,1,4.709,0,5.825l-1.848,2.061c-.92,1.025-.92,4.459,0,5.485l4.384,4.888Z" transform="translate(-842.3 -580.186)" fill="none" stroke="#956134" stroke-miterlimit="10" stroke-width="0.25"/>
      </g>
      <g id="Group_4" data-name="Group 4" transform="translate(932.026 549.05)">
        <path id="Path_22" data-name="Path 22" d="M976.427,639l-.189-.169,4.384-4.888c.919-1.026.919-4.46,0-5.485l-1.848-2.061c-1-1.116-1-4.708,0-5.824l1.848-2.061c.919-1.025.919-4.459,0-5.485l-1.848-2.061c-1-1.116-1-4.708,0-5.824l1.848-2.061c.919-1.026.919-4.46,0-5.485l-1.848-2.061c-1-1.116-1-4.709,0-5.824l1.848-2.061c.919-1.025.919-4.459,0-5.485l-4.384-4.888.189-.169L980.811,582c1,1.116,1,4.708,0,5.825l-1.848,2.061c-.92,1.025-.92,4.459,0,5.484l1.848,2.061c1,1.116,1,4.709,0,5.825l-1.848,2.061c-.92,1.026-.92,4.459,0,5.485l1.848,2.061c1,1.116,1,4.709,0,5.825l-1.848,2.061c-.92,1.025-.92,4.459,0,5.484l1.848,2.061c1,1.116,1,4.709,0,5.825Z" transform="translate(-976.237 -577.107)" fill="none" stroke="#956134" stroke-miterlimit="10" stroke-width="0.25"/>
        <path id="Path_23" data-name="Path 23" d="M984.1,639l-4.384-4.887c-1-1.116-1-4.709,0-5.825l1.848-2.061c.919-1.025.919-4.459,0-5.484l-1.848-2.061c-1-1.116-1-4.709,0-5.825l1.848-2.061c.919-1.026.919-4.459,0-5.485l-1.848-2.061c-1-1.116-1-4.709,0-5.825l1.848-2.061c.919-1.025.919-4.459,0-5.484l-1.848-2.061c-1-1.116-1-4.709,0-5.825l4.384-4.888.189.169-4.384,4.888c-.919,1.026-.919,4.46,0,5.485l1.848,2.061c1,1.116,1,4.709,0,5.824l-1.848,2.061c-.919,1.025-.919,4.459,0,5.485l1.848,2.061c1,1.116,1,4.708,0,5.824l-1.848,2.061c-.919,1.026-.919,4.46,0,5.485l1.848,2.061c1,1.116,1,4.709,0,5.824l-1.848,2.061c-.919,1.026-.919,4.459,0,5.485l4.384,4.888Z" transform="translate(-977.132 -577.107)" fill="none" stroke="#956134" stroke-miterlimit="10" stroke-width="0.25"/>
      </g>
      <path id="Union_2" data-name="Union 2" d="M29.439,43.2a3.3,3.3,0,0,0,2.045-.453A3.859,3.859,0,0,0,33.055,39.8a13.191,13.191,0,0,0,.082-1.912,3.965,3.965,0,0,0-1.726-2.424H22.679v-.669h8.838a3.765,3.765,0,0,0,1.571-2.2c0-.863-.005-1.823-.008-2.823a3.9,3.9,0,0,0-1.669-2.243H22.679v-.669h8.84a3.716,3.716,0,0,0,1.542-2.113c0-.169,0-.337,0-.5,0-.578-.005-1.121-.006-1.707a3.511,3.511,0,0,0-2.5-2.611H22.679v-.669h14.48v.669H37.1v1.211c0,4.3.017,15.73.061,18.975a2.881,2.881,0,0,1-1.647,2.876,6.782,6.782,0,0,1-3.189.757A8.1,8.1,0,0,1,29.439,43.2ZM12.527,42.015a3.758,3.758,0,0,0,.81-2.056l0-22.375h4.41V39.916l0,.039a3.826,3.826,0,0,0,.765,2.06ZM11.2,8.3H2.525C1.61,8.341.737,9.361,0,9.8V6.135c.73.46,1.6,1.442,2.524,1.486v.014h8.859C12.434,3.688,12.927.669,12.927.669H10.074V0h8.41V.669a65.745,65.745,0,0,1-1.97,6.965H38.279V8.3h-22C13.73,15.561,8.871,25.378,1.262,25.378,6.192,23.354,9.418,14.786,11.2,8.3Zm27.077.015V7.634c.914-.039,1.787-1.058,2.524-1.5V9.8C40.073,9.342,39.2,8.36,38.28,8.317Z" transform="translate(870.049 513.847)" fill="#956134"/>
      <path id="Union_1" data-name="Union 1" d="M29.4,41.416c.864-.367.754-.806.836-1.27h0v-23.6H26.589V32.222H26.6a3.332,3.332,0,0,0,.878,2.208c-1.716,0-4.247-1.4-4.187-2.208v-16.3h6.939v-4.7h0c-.073-.459-.008-.9-.836-1.268H33.53V11.2l0,.017v4.7h7.988v.627h-.044c0,3.467.011,12.489.044,15.1a2.729,2.729,0,0,1-1.358,2.624c-1.931,1.141-3.17.78-5-.988.4.128.665.2.919.293.436.155,1.215.454,1.528-.027.5-.775.347-4.965.347-6.051,0-2.777-.025-7.843-.034-10.956h-4.39v23.6c.073.46.007.9.837,1.27ZM5.592,38.732a3.341,3.341,0,0,1-1.357-3.055c.035-3.252.042-11.844.045-21.525H7.832c0,8.372-.041,15.658-.033,17.6,0,1.2-.094,2.412.023,3.59a3.128,3.128,0,0,0,.967,2.165,2.25,2.25,0,0,0,3.216-.45A8.266,8.266,0,0,0,13.168,34.1c.025-.1.3-1.56.366-1.979H11.6V31.49h4.32v.627H15.9a11.86,11.86,0,0,1-2.614,5.857.16.16,0,0,1-.022.023c-.036.035-.071.072-.108.106a4.318,4.318,0,0,1-.848.671l-.117.071c-.065.036-.128.074-.194.109a4.592,4.592,0,0,1-.742.313,7.109,7.109,0,0,1-2.3.371A6.1,6.1,0,0,1,5.592,38.732Zm7.593-12.678H10.009v-.627h2.365a2.315,2.315,0,0,0,.8-1.344c0,.01,0,.02.007.029V21.3a2.272,2.272,0,0,0-.675-1.161H9.786v-.627h2.662a2.284,2.284,0,0,0,.736-1.191v-2.1A1.934,1.934,0,0,0,12,14.779H9.695v-.628H16v11.9ZM23.427.627H20.7V0h6.957V.627h-.022c-.245,1.179-2.6,11.3-11.226,11.3C22.2,9.642,23.306,1.665,23.427.627ZM8.954,10.52l1.458-1.275,1.567,1.376-1.408,1.308ZM7.021.67H4.292V.042h6.956V.558h0V.67h-.021a19.557,19.557,0,0,1-1.175,3.595h3.562c.85-.051,1.663-1,2.347-1.407V6.3c-.684-.433-1.5-1.354-2.367-1.395V4.893H9.764C8.234,8.09,5.3,11.887,0,11.887,5.792,9.618,6.9,1.7,7.021.67ZM38.947,6.857v-.64c.857-.036,1.677-.992,2.367-1.407V8.252C40.629,7.82,39.81,6.9,38.947,6.857ZM27.581,6.844V6.217H38.947v.627Z" transform="translate(870.119 596.925)" fill="#956134"/>
      <g id="Group_22" data-name="Group 22" transform="translate(844.508 491.541)">
        <g id="Group_9" data-name="Group 9" transform="translate(0 31.968)">
          <path id="Path_45" data-name="Path 45" d="M848.3,540l-.358,1.089,1.217,1.024a.886.886,0,0,0,.167.119c.056.018.1-.014.124-.1l.038.012-.182.552-.038-.013a.322.322,0,0,0,.007-.2.719.719,0,0,0-.227-.259L846.1,539.76l.021-.067,3.715-.245a1.5,1.5,0,0,0,.271-.023.347.347,0,0,0,.315-.241l.038.013-.286.867-.038-.012c.026-.079.007-.129-.054-.149a.655.655,0,0,0-.22-.009.086.086,0,0,1-.039.007c-.018,0-.027,0-.028,0Zm-.45,1.02.33-1-1.43.085Z" transform="translate(-846.046 -539.131)" fill="#956134" stroke="#956134" stroke-miterlimit="10" stroke-width="0.25"/>
          <path id="Path_46" data-name="Path 46" d="M849.309,542.726l-.119-.04.014-.04a.288.288,0,0,0,.007-.179c-.012-.037-.059-.108-.214-.239l-2.975-2.482.04-.122.029,0,3.724-.245.008,0a2.036,2.036,0,0,0,.253-.025.306.306,0,0,0,.28-.212l.013-.04.119.039-.312.948-.118-.039.013-.04a.1.1,0,0,0,0-.073.047.047,0,0,0-.032-.023.567.567,0,0,0-.2-.007.146.146,0,0,1-.049.007h-.014l-1.475.1-.341,1.035,1.195,1a.807.807,0,0,0,.154.112c.012,0,.042.014.069-.069l.013-.04.119.038Zm-3.188-3.006,2.93,2.445a.737.737,0,0,1,.24.278.352.352,0,0,1,.009.037l.079-.239a.121.121,0,0,1-.091,0,.756.756,0,0,1-.181-.126l-1.239-1.043.376-1.144.029,0,1.489-.1a.126.126,0,0,1,.04,0,.033.033,0,0,0,.014,0l.016,0a.667.667,0,0,1,.237.011.136.136,0,0,1,.081.063l.186-.564a.436.436,0,0,1-.25.107,1.414,1.414,0,0,1-.281.024l-3.68.243Zm1.725,1.345-1.23-1.028,1.6-.1Zm-1.011-.956.97.81.292-.885Z" transform="translate(-846.022 -539.105)" fill="#956134" stroke="#956134" stroke-miterlimit="10" stroke-width="0.25"/>
        </g>
        <g id="Group_10" data-name="Group 10" transform="translate(2.932 23.72)">
          <path id="Path_47" data-name="Path 47" d="M850.505,528.792l-.034-.019.55-.964q.209-.366.318-.521a1.048,1.048,0,0,1,.3-.274.713.713,0,0,1,.394-.118.88.88,0,0,1,.432.13,1,1,0,0,1,.4.437,1.457,1.457,0,0,1,.144.665l.505-.029q.182,0,.843-.07a2.438,2.438,0,0,0,.868-.2.837.837,0,0,0,.306-.3.911.911,0,0,0,.093-.467l.054.013a1.263,1.263,0,0,1-.185.847.885.885,0,0,1-.463.407,6.286,6.286,0,0,1-1.379.19.014.014,0,0,1-.012,0l-.72.041-.164.308-.156.275,1.3.741a.517.517,0,0,0,.247.087c.061,0,.122-.054.182-.16l.035.02-.5.876-.034-.02c.058-.112.073-.194.048-.244a.6.6,0,0,0-.231-.185l-2.7-1.54a.67.67,0,0,0-.237-.089Q850.608,528.618,850.505,528.792Zm.419-.6,1.592.909.2-.355a1,1,0,0,0,.158-.737.8.8,0,0,0-.405-.5,1.15,1.15,0,0,0-.707-.139.927.927,0,0,0-.681.543Z" transform="translate(-850.413 -526.854)" fill="#956134" stroke="#956134" stroke-miterlimit="10" stroke-width="0.25"/>
          <path id="Path_48" data-name="Path 48" d="M853.853,530.748l-.107-.06.019-.037c.067-.128.059-.183.047-.2s-.064-.082-.213-.167l-2.7-1.541a.643.643,0,0,0-.223-.084c-.069-.01-.126.07-.166.138l-.022.036-.107-.062.571-1c.138-.243.247-.419.321-.524a1.082,1.082,0,0,1,.311-.285.761.761,0,0,1,.413-.125h.005a.921.921,0,0,1,.452.136,1.052,1.052,0,0,1,.421.455,1.483,1.483,0,0,1,.149.639l.46-.026h0c.124,0,.406-.023.839-.07a2.409,2.409,0,0,0,.85-.191.8.8,0,0,0,.292-.284.868.868,0,0,0,.088-.445v-.054l.134.031,0,.028a1.309,1.309,0,0,1-.19.875.931.931,0,0,1-.485.426,6.305,6.305,0,0,1-1.387.193.056.056,0,0,1-.024,0l-.688.04-.152.286-.136.239,1.261.721a.506.506,0,0,0,.222.081h0c.044,0,.095-.049.146-.138l.021-.037.108.062Zm-3.184-2.18.023,0a.722.722,0,0,1,.253.095l2.7,1.54a.636.636,0,0,1,.247.2.164.164,0,0,1,.016.079l.291-.509a.159.159,0,0,1-.073.019h-.006a.57.57,0,0,1-.264-.093l-1.335-.762.179-.312.174-.327.756-.043h0a6.388,6.388,0,0,0,1.364-.187.856.856,0,0,0,.442-.388,1.371,1.371,0,0,0,.19-.577.719.719,0,0,1-.079.227.9.9,0,0,1-.322.314,2.454,2.454,0,0,1-.884.2c-.436.047-.721.071-.845.071h0l-.548.032v-.045a1.428,1.428,0,0,0-.14-.646.972.972,0,0,0-.387-.419.851.851,0,0,0-.411-.125H852a.67.67,0,0,0-.367.112,1.006,1.006,0,0,0-.286.263c-.073.1-.18.277-.317.517l-.448.784A.179.179,0,0,1,850.669,528.568Zm1.835.566-.037-.021-1.629-.931.181-.316a.97.97,0,0,1,.714-.565,1.209,1.209,0,0,1,.733.144.848.848,0,0,1,.425.528,1.036,1.036,0,0,1-.163.768Zm-1.55-.983,1.518.868.182-.319a.962.962,0,0,0,.154-.705.753.753,0,0,0-.385-.475,1.119,1.119,0,0,0-.682-.134.894.894,0,0,0-.649.522Z" transform="translate(-850.385 -526.833)" fill="#956134" stroke="#956134" stroke-miterlimit="10" stroke-width="0.25"/>
        </g>
        <g id="Group_11" data-name="Group 11" transform="translate(7.809 15.26)">
          <path id="Path_49" data-name="Path 49" d="M863.064,516.872l-.481.564-.458-.391a1.751,1.751,0,0,1-.4,1.433,1.273,1.273,0,0,1-.846.489,1.191,1.191,0,0,1-.907-.326l-1.782-1.519a.458.458,0,0,0-.237-.136c-.051,0-.116.048-.2.142l-.03-.026.673-.79.03.026a.4.4,0,0,0-.112.211c0,.056.045.126.143.21l1.634,1.393a1.257,1.257,0,0,0,.936.384,1.039,1.039,0,0,0,.686-.36,1.458,1.458,0,0,0,.3-1.225L860,515.235c-.176-.15-.294-.224-.354-.221a.252.252,0,0,0-.173.1l-.024.028-.03-.026.668-.783.03.026a.386.386,0,0,0-.108.224.308.308,0,0,0,.122.168l2.422,2.065a1.03,1.03,0,0,0,.2.146.182.182,0,0,0,.123.005.359.359,0,0,0,.156-.124Z" transform="translate(-857.67 -514.275)" fill="#956134" stroke="#956134" stroke-miterlimit="10" stroke-width="0.25"/>
          <path id="Path_50" data-name="Path 50" d="M860.75,518.985a1.273,1.273,0,0,1-.831-.342l-1.782-1.519c-.132-.113-.19-.126-.208-.126h0c-.021,0-.071.017-.165.128l-.028.033-.095-.081.728-.854.1.081-.027.032a.342.342,0,0,0-.1.185c0,.024.013.079.128.176l1.634,1.394a1.217,1.217,0,0,0,.9.374,1,1,0,0,0,.659-.345,1.418,1.418,0,0,0,.288-1.176l-2-1.706c-.222-.188-.3-.21-.322-.21h0a.208.208,0,0,0-.143.088l-.051.06-.1-.081.723-.849.093.08-.024.032c-.1.125-.1.177-.1.193s.024.07.107.141l2.422,2.065a.948.948,0,0,0,.189.139.137.137,0,0,0,.095,0,.314.314,0,0,0,.134-.11l.028-.032.094.081-.535.628-.409-.349a1.775,1.775,0,0,1-.417,1.358,1.323,1.323,0,0,1-.874.5C860.823,518.983,860.786,518.985,860.75,518.985Zm-2.82-2.072a.484.484,0,0,1,.263.147l1.782,1.519a1.159,1.159,0,0,0,.876.316,1.241,1.241,0,0,0,.818-.475,1.715,1.715,0,0,0,.385-1.4l-.015-.11.511.435.311-.365h0a.226.226,0,0,1-.151-.007,1,1,0,0,1-.211-.153l-2.421-2.065a.337.337,0,0,1-.136-.2.156.156,0,0,1,0-.054l-.379.444a.209.209,0,0,1,.052-.009c.05,0,.138.022.383.232l2.026,1.727,0,.016a1.5,1.5,0,0,1-.3,1.259,1.086,1.086,0,0,1-.712.374,1.3,1.3,0,0,1-.969-.394l-1.634-1.393c-.11-.093-.162-.174-.158-.245a.2.2,0,0,1,0-.028l-.368.431A.15.15,0,0,1,857.93,516.914Z" transform="translate(-857.641 -514.246)" fill="#956134" stroke="#956134" stroke-miterlimit="10" stroke-width="0.25"/>
        </g>
        <g id="Group_12" data-name="Group 12" transform="translate(19.909 5.78)">
          <path id="Path_51" data-name="Path 51" d="M875.75,501.629l-.02-.034,1.561-.885a4.333,4.333,0,0,1,.994-.44,1.927,1.927,0,0,1,.768-.046,1.637,1.637,0,0,1,.7.284,1.835,1.835,0,0,1,.546.613,2.094,2.094,0,0,1,.259.819,2.2,2.2,0,0,1-.073.859,1.684,1.684,0,0,1-.363.675,3.71,3.71,0,0,1-.864.616l-1.6.905-.02-.035.042-.023a.182.182,0,0,0,.107-.193,1.315,1.315,0,0,0-.167-.386l-1.4-2.476c-.1-.184-.184-.287-.237-.307A.29.29,0,0,0,875.75,501.629Zm1.18-.62-.521.3,1.5,2.639a.752.752,0,0,0,.294.323.556.556,0,0,0,.386.012,2.548,2.548,0,0,0,.579-.255,1.857,1.857,0,0,0,1.064-1.251,1.944,1.944,0,0,0-.22-1.29,1.8,1.8,0,0,0-1.2-.88A2.594,2.594,0,0,0,876.93,501.009Z" transform="translate(-875.672 -500.162)" fill="#956134" stroke="#956134" stroke-miterlimit="10" stroke-width="0.25"/>
          <path id="Path_52" data-name="Path 52" d="M877.614,505.033l-.062-.108.079-.045a.139.139,0,0,0,.085-.15,1.275,1.275,0,0,0-.161-.371l-1.4-2.476c-.134-.237-.2-.281-.215-.289s-.084-.01-.194.052l-.037.021-.061-.109,1.6-.905a4.389,4.389,0,0,1,1-.444,1.973,1.973,0,0,1,.785-.047,1.685,1.685,0,0,1,.716.29,1.874,1.874,0,0,1,.558.627,2.141,2.141,0,0,1,.263.835,2.241,2.241,0,0,1-.075.876,1.717,1.717,0,0,1-.372.692,3.738,3.738,0,0,1-.874.624Zm-1.7-3.529a.165.165,0,0,1,.055.011c.04.015.112.066.259.326l1.4,2.476a1.3,1.3,0,0,1,.171.4.216.216,0,0,1-.015.12l1.421-.805a3.7,3.7,0,0,0,.854-.608,1.634,1.634,0,0,0,.353-.659,2.158,2.158,0,0,0,.072-.842,2.067,2.067,0,0,0-.253-.8,1.807,1.807,0,0,0-.534-.6,1.6,1.6,0,0,0-.68-.276,1.874,1.874,0,0,0-.751.045,4.345,4.345,0,0,0-.984.436l-.264.151a2.534,2.534,0,0,1,1.772-.335,1.853,1.853,0,0,1,1.225.9,2,2,0,0,1,.225,1.317,1.906,1.906,0,0,1-1.085,1.282,2.609,2.609,0,0,1-.589.261.6.6,0,0,1-.416-.016.792.792,0,0,1-.312-.34l-1.516-2.674Zm.526-.2,1.474,2.6a.718.718,0,0,0,.276.306.519.519,0,0,0,.358.009,2.48,2.48,0,0,0,.567-.251,1.827,1.827,0,0,0,1.044-1.221,1.914,1.914,0,0,0-.215-1.262,1.77,1.77,0,0,0-1.172-.859,2.56,2.56,0,0,0-1.848.4Z" transform="translate(-875.644 -500.141)" fill="#956134" stroke="#956134" stroke-miterlimit="10" stroke-width="0.25"/>
        </g>
        <g id="Group_13" data-name="Group 13" transform="translate(28.892 2.039)">
          <path id="Path_53" data-name="Path 53" d="M889.1,495.471l-.014-.043,2.333-.774.169.511-.038.012a1.009,1.009,0,0,0-.239-.292.429.429,0,0,0-.27.034l-1.224.406.553,1.665,1.136-.377a.477.477,0,0,0,.2-.1.117.117,0,0,0,.017-.108l.038-.012.116.35-.038.013a.135.135,0,0,0-.091-.079.44.44,0,0,0-.182.032l-1.166.387.38,1.147a1.121,1.121,0,0,0,.171.358.244.244,0,0,0,.2.093,1.376,1.376,0,0,0,.325-.076l.654-.217a2.373,2.373,0,0,0,.392-.153.317.317,0,0,0,.119-.134.6.6,0,0,0,0-.31l.038-.012.169.509-2.536.842-.013-.038a.444.444,0,0,0,.179-.114c.036-.042.034-.122,0-.237l-.994-3a.845.845,0,0,0-.13-.275Q889.294,495.407,889.1,495.471Z" transform="translate(-889.035 -494.6)" fill="#956134" stroke="#956134" stroke-miterlimit="10" stroke-width="0.25"/>
          <path id="Path_54" data-name="Path 54" d="M890.266,499.166l-.039-.116.038-.015a.4.4,0,0,0,.162-.1c.014-.017.031-.065-.013-.2l-.993-3a.84.84,0,0,0-.122-.26c-.028-.033-.1-.032-.209,0l-.04.013-.04-.124,2.413-.8.2.592-.11.036-.017-.028c-.142-.217-.2-.268-.222-.278s-.07-.02-.238.036l-1.184.392.526,1.585,1.1-.364c.14-.047.175-.077.183-.088a.073.073,0,0,0,.01-.071l-.011-.04.116-.038.143.43-.111.038-.018-.032a.1.1,0,0,0-.062-.056.362.362,0,0,0-.16.03l-1.126.374.366,1.106a1.105,1.105,0,0,0,.164.344.189.189,0,0,0,.166.079,1.285,1.285,0,0,0,.314-.074l.654-.216a2.143,2.143,0,0,0,.382-.15.267.267,0,0,0,.1-.116.544.544,0,0,0,0-.285l-.006-.036.112-.038.2.589-.04.013Zm-.993-3.79a.154.154,0,0,1,.089.048.882.882,0,0,1,.139.29l.994,2.995c.044.132.043.223,0,.278a.211.211,0,0,1-.019.019l2.3-.763-.091-.276a.33.33,0,0,1-.023.134.356.356,0,0,1-.135.152,2.283,2.283,0,0,1-.4.158l-.654.217a1.378,1.378,0,0,1-.337.078.281.281,0,0,1-.234-.107,1.139,1.139,0,0,1-.18-.372l-.394-1.187,1.206-.4a.441.441,0,0,1,.2-.034.162.162,0,0,1,.048.017l-.046-.14a.169.169,0,0,1-.016.026c-.019.025-.063.063-.225.117l-1.176.391-.013-.04-.566-1.705,1.264-.419a.446.446,0,0,1,.3-.032c.029.014.073.048.166.177l-.1-.317Z" transform="translate(-889.009 -494.574)" fill="#956134" stroke="#956134" stroke-miterlimit="10" stroke-width="0.25"/>
        </g>
        <g id="Group_14" data-name="Group 14" transform="translate(37.183 0.312)">
          <path id="Path_55" data-name="Path 55" d="M904.544,492.2l.2.392-.038.005a1.832,1.832,0,0,0-1.4-.39,1.783,1.783,0,0,0-1.219.636,1.536,1.536,0,0,0-.341,1.2,2.583,2.583,0,0,0,.339.922,2.029,2.029,0,0,0,.8.8,1.874,1.874,0,0,0,1.18.2,2.723,2.723,0,0,0,.838-.251,1.407,1.407,0,0,0,.577-.458l.036.006-.218.451q-.639.227-.832.278a4.186,4.186,0,0,1-.522.094,2.313,2.313,0,0,1-1.816-.34,1.932,1.932,0,0,1-.7-1.284,2.118,2.118,0,0,1,.138-1.057,1.966,1.966,0,0,1,.678-.874,2.614,2.614,0,0,1,1.7-.446,3.26,3.26,0,0,1,.411.071l.183.044Z" transform="translate(-901.367 -492.026)" fill="#956134" stroke="#956134" stroke-miterlimit="10" stroke-width="0.25"/>
          <path id="Path_56" data-name="Path 56" d="M903.376,496.141a1.869,1.869,0,0,1-2.013-1.7,2.173,2.173,0,0,1,.141-1.078,2.016,2.016,0,0,1,.692-.893,2.416,2.416,0,0,1,1.145-.44,2.459,2.459,0,0,1,.582-.013,3.145,3.145,0,0,1,.417.072l.181.043a.073.073,0,0,1,.025.011l.009.006.23.456-.116.015-.013-.011a1.8,1.8,0,0,0-1.367-.382,1.747,1.747,0,0,0-1.192.621,1.506,1.506,0,0,0-.332,1.17,2.567,2.567,0,0,0,.335.907,2,2,0,0,0,.783.779,1.836,1.836,0,0,0,1.153.195,2.681,2.681,0,0,0,.825-.247,1.377,1.377,0,0,0,.56-.444l.015-.023.118.021-.25.517-.016.006c-.425.15-.706.245-.835.279a4.176,4.176,0,0,1-.527.095A4.249,4.249,0,0,1,903.376,496.141Zm.332-4.05a2.881,2.881,0,0,0-.357.024,2.333,2.333,0,0,0-1.1.425,1.936,1.936,0,0,0-.664.856,2.09,2.09,0,0,0-.135,1.036,1.9,1.9,0,0,0,.684,1.257,2.284,2.284,0,0,0,1.785.33,4.132,4.132,0,0,0,.516-.093c.125-.034.4-.125.813-.272l.115-.239a1.7,1.7,0,0,1-.46.313,2.743,2.743,0,0,1-.852.255,1.92,1.92,0,0,1-1.205-.2,2.1,2.1,0,0,1-.817-.811,2.667,2.667,0,0,1-.344-.938,1.583,1.583,0,0,1,.35-1.234,1.825,1.825,0,0,1,1.247-.652,1.865,1.865,0,0,1,1.351.341l-.136-.27-.173-.042a3.263,3.263,0,0,0-.407-.07A1.779,1.779,0,0,0,903.708,492.091Z" transform="translate(-901.346 -492.006)" fill="#956134" stroke="#956134" stroke-miterlimit="10" stroke-width="0.25"/>
        </g>
        <g id="Group_15" data-name="Group 15" transform="translate(46.219)">
          <path id="Path_57" data-name="Path 57" d="M917.08,491.6a1.864,1.864,0,0,1,1.337.523,1.657,1.657,0,0,1,.5,1.258,2.308,2.308,0,0,1-.633,1.611,2.078,2.078,0,0,1-1.617.63,1.791,1.791,0,0,1-1.816-1.836,2.4,2.4,0,0,1,.267-1.025,2.076,2.076,0,0,1,1.96-1.161ZM917,495.426a1.642,1.642,0,0,0,.8-.2,1.607,1.607,0,0,0,.628-.585,1.508,1.508,0,0,0,.239-.776,1.844,1.844,0,0,0-.286-1.037,2.167,2.167,0,0,0-.776-.741,1.9,1.9,0,0,0-.891-.278,1.523,1.523,0,0,0-1.063.42,1.422,1.422,0,0,0-.492,1.079,2.087,2.087,0,0,0,.554,1.469A1.734,1.734,0,0,0,917,495.426Z" transform="translate(-914.81 -491.562)" fill="#956134" stroke="#956134" stroke-miterlimit="10" stroke-width="0.25"/>
          <path id="Path_58" data-name="Path 58" d="M916.7,495.649h-.051a1.834,1.834,0,0,1-1.858-1.879,2.458,2.458,0,0,1,.271-1.043,2.114,2.114,0,0,1,1.951-1.185h.048a1.915,1.915,0,0,1,1.366.536,1.7,1.7,0,0,1,.514,1.288A2.361,2.361,0,0,1,918.3,495,2.113,2.113,0,0,1,916.7,495.649Zm.314-4.023a2.031,2.031,0,0,0-1.875,1.138,2.373,2.373,0,0,0-.263,1.007,1.75,1.75,0,0,0,1.774,1.793,2.039,2.039,0,0,0,1.585-.618,2.279,2.279,0,0,0,.621-1.582,1.624,1.624,0,0,0-.489-1.227,1.832,1.832,0,0,0-1.308-.511h-.047Zm-.01,3.822h-.025a1.782,1.782,0,0,1-1.318-.666,2.141,2.141,0,0,1-.564-1.5,1.468,1.468,0,0,1,.506-1.11,1.569,1.569,0,0,1,1.065-.431h.026a1.949,1.949,0,0,1,.911.284,2.208,2.208,0,0,1,.79.755,1.894,1.894,0,0,1,.292,1.061,1.556,1.556,0,0,1-.245.8,1.653,1.653,0,0,1-.645.6A1.691,1.691,0,0,1,917,495.447Zm-.023-.085H917a1.606,1.606,0,0,0,.755-.2,1.571,1.571,0,0,0,.612-.57,1.477,1.477,0,0,0,.233-.755,1.818,1.818,0,0,0-.279-1.014,2.136,2.136,0,0,0-.761-.727,1.872,1.872,0,0,0-.871-.271h-.025a1.49,1.49,0,0,0-1.009.409,1.386,1.386,0,0,0-.478,1.048,2.057,2.057,0,0,0,.543,1.44,1.7,1.7,0,0,0,1.255.637Z" transform="translate(-914.79 -491.541)" fill="#956134" stroke="#956134" stroke-miterlimit="10" stroke-width="0.25"/>
        </g>
        <g id="Group_16" data-name="Group 16" transform="translate(61.224 2.758)">
          <path id="Path_59" data-name="Path 59" d="M940.349,496.134l.007.522-.032-.006s-.028-.068-.085-.2a1.011,1.011,0,0,0-.609-.563.866.866,0,0,0-.676,0,.744.744,0,0,0-.41.44.643.643,0,0,0-.025.391,1,1,0,0,0,.33.439c.331.264.555.454.669.569a1.253,1.253,0,0,1,.284.471.942.942,0,0,1-.02.659,1.216,1.216,0,0,1-.139.272,1,1,0,0,1-.208.22,1.165,1.165,0,0,1-.27.162.933.933,0,0,1-.278.077,1.279,1.279,0,0,1-.383-.048c-.169-.041-.277-.071-.329-.089l-.98-.356.389-1.068.038.014a1.01,1.01,0,0,0-.021.831,1.228,1.228,0,0,0,.684.487,1.091,1.091,0,0,0,.793.037.74.74,0,0,0,.438-.445.635.635,0,0,0,.033-.354.853.853,0,0,0-.152-.321,3.03,3.03,0,0,0-.486-.456,3.3,3.3,0,0,1-.5-.474.9.9,0,0,1-.164-.438,1.049,1.049,0,0,1,.05-.5,1.027,1.027,0,0,1,.554-.608,1.115,1.115,0,0,1,.874-.009,2.215,2.215,0,0,1,.383.188,2.266,2.266,0,0,1,.22.142A.047.047,0,0,0,940.349,496.134Z" transform="translate(-937.142 -495.665)" fill="#956134" stroke="#956134" stroke-miterlimit="10" stroke-width="0.25"/>
          <path id="Path_60" data-name="Path 60" d="M938.814,499.61a1.541,1.541,0,0,1-.346-.051c-.171-.041-.28-.07-.334-.09l-1.02-.371.417-1.147.117.042-.013.04a.976.976,0,0,0-.024.8,1.191,1.191,0,0,0,.661.468,1.062,1.062,0,0,0,.762.038.707.707,0,0,0,.414-.421.6.6,0,0,0,.031-.33.819.819,0,0,0-.145-.305,2.994,2.994,0,0,0-.479-.448,3.367,3.367,0,0,1-.505-.482.951.951,0,0,1-.172-.458,1.094,1.094,0,0,1,.053-.516,1.068,1.068,0,0,1,.576-.633,1.161,1.161,0,0,1,.907-.011,2.327,2.327,0,0,1,.391.192,1.649,1.649,0,0,1,.229.149l.028.01,0,.031.008.574-.134-.025.013-.032c-.015-.037-.06-.138-.078-.181a1,1,0,0,0-.226-.325,1.023,1.023,0,0,0-.359-.216.831.831,0,0,0-.644,0,.7.7,0,0,0-.388.415.608.608,0,0,0-.024.365.969.969,0,0,0,.317.418c.329.262.555.455.671.57a1.322,1.322,0,0,1,.294.487.986.986,0,0,1-.021.688,1.249,1.249,0,0,1-.145.282,1.06,1.06,0,0,1-.216.23,1.279,1.279,0,0,1-.278.167.975.975,0,0,1-.291.08Zm-1.591-.563.94.342c.05.018.159.048.325.087a1.207,1.207,0,0,0,.369.047.854.854,0,0,0,.265-.073,1.138,1.138,0,0,0,.259-.156.952.952,0,0,0,.2-.212,1.189,1.189,0,0,0,.135-.263.9.9,0,0,0,.02-.629,1.237,1.237,0,0,0-.274-.456c-.114-.113-.338-.3-.667-.565a1.032,1.032,0,0,1-.345-.461.69.69,0,0,1,.027-.416.79.79,0,0,1,.432-.464.919.919,0,0,1,.708,0,1.1,1.1,0,0,1,.388.234,1.088,1.088,0,0,1,.245.352l.034.076,0-.354-.007-.007a1.938,1.938,0,0,0-.21-.135,2.211,2.211,0,0,0-.376-.184,1.08,1.08,0,0,0-.842.008.99.99,0,0,0-.531.584,1.011,1.011,0,0,0-.048.476.868.868,0,0,0,.155.418,3.28,3.28,0,0,0,.491.467,3.072,3.072,0,0,1,.492.463.883.883,0,0,1,.159.337.673.673,0,0,1-.034.377.784.784,0,0,1-.461.47,1.132,1.132,0,0,1-.823-.036,1.27,1.27,0,0,1-.707-.505.785.785,0,0,1-.077-.475Z" transform="translate(-937.115 -495.644)" fill="#956134" stroke="#956134" stroke-miterlimit="10" stroke-width="0.25"/>
        </g>
        <g id="Group_17" data-name="Group 17" transform="translate(68.74 5.409)">
          <path id="Path_61" data-name="Path 61" d="M952.289,501.34l-.4.315-.035-.02a.519.519,0,0,0,.067-.093.074.074,0,0,0,0-.089.408.408,0,0,0-.112-.085l-.882-.511-1.678,2.893a.811.811,0,0,0-.112.261.16.16,0,0,0,.03.128.63.63,0,0,0,.15.11l-.021.034-.915-.531.02-.034a.359.359,0,0,0,.255.058.463.463,0,0,0,.176-.2l1.706-2.941-.845-.49a.665.665,0,0,0-.176-.082c-.031,0-.059.012-.082.052a.394.394,0,0,0-.036.1l-.034-.02.077-.5.034.02a.235.235,0,0,0,.023.147.63.63,0,0,0,.163.118l2.244,1.3a.84.84,0,0,0,.2.094.16.16,0,0,0,.144-.05Z" transform="translate(-948.326 -499.622)" fill="#956134" stroke="#956134" stroke-miterlimit="10" stroke-width="0.25"/>
          <path id="Path_62" data-name="Path 62" d="M949.287,504.306l-.989-.573.061-.106.036.018c.14.07.2.065.22.058s.075-.046.155-.186l1.685-2.9-.809-.469a.618.618,0,0,0-.161-.077c-.005,0-.019,0-.039.032a.4.4,0,0,0-.03.091l-.013.055-.109-.063.09-.592.111.065v.026c0,.08.007.109.015.119a.548.548,0,0,0,.151.106l2.244,1.3a.872.872,0,0,0,.19.09.122.122,0,0,0,.106-.041l.023-.02.114.067-.469.371-.106-.061.037-.04a.4.4,0,0,0,.061-.085c.016-.028.009-.037,0-.042a.327.327,0,0,0-.1-.075l-.845-.49-1.657,2.856a.753.753,0,0,0-.108.245.119.119,0,0,0,.02.1.58.58,0,0,0,.139.1l.037.022Zm-.719-.515.516.3a.234.234,0,0,1-.013-.119.812.812,0,0,1,.118-.278l1.7-2.93.919.533a.435.435,0,0,1,.124.1.108.108,0,0,1,.014.11l.154-.122-.026,0a.879.879,0,0,1-.212-.1l-2.244-1.3a.573.573,0,0,1-.176-.129l-.009-.013-.027.177a.108.108,0,0,1,.093-.03.655.655,0,0,1,.19.087l.882.511-.021.037-1.706,2.941a.493.493,0,0,1-.2.222A.193.193,0,0,1,948.568,503.792Z" transform="translate(-948.298 -499.589)" fill="#956134" stroke="#956134" stroke-miterlimit="10" stroke-width="0.25"/>
        </g>
        <g id="Group_18" data-name="Group 18" transform="translate(75.258 10.434)">
          <path id="Path_63" data-name="Path 63" d="M960.133,512.49l-.558-.486.4-.454a1.753,1.753,0,0,1-1.428-.411,1.277,1.277,0,0,1-.48-.852,1.192,1.192,0,0,1,.336-.9l1.537-1.765a.46.46,0,0,0,.139-.236c0-.051-.047-.117-.141-.2l.026-.03.782.681-.026.03a.393.393,0,0,0-.209-.114c-.056,0-.128.044-.212.141l-1.41,1.618a1.252,1.252,0,0,0-.394.933,1.039,1.039,0,0,0,.351.689,1.458,1.458,0,0,0,1.223.308l1.737-2c.153-.174.227-.292.225-.351a.255.255,0,0,0-.1-.175l-.028-.024.026-.03.776.676-.026.03a.383.383,0,0,0-.223-.11.306.306,0,0,0-.169.12l-2.09,2.4a1.029,1.029,0,0,0-.148.2.179.179,0,0,0-.007.123.359.359,0,0,0,.122.156Z" transform="translate(-958.016 -507.094)" fill="#956134" stroke="#956134" stroke-miterlimit="10" stroke-width="0.25"/>
          <path id="Path_64" data-name="Path 64" d="M960.117,512.521l-.622-.542.354-.406a1.783,1.783,0,0,1-1.354-.431,1.32,1.32,0,0,1-.494-.88,1.234,1.234,0,0,1,.345-.935l1.537-1.765c.116-.132.129-.19.129-.208s-.017-.071-.126-.166l-.032-.028.081-.095.846.737-.081.094-.032-.027a.347.347,0,0,0-.183-.1h0c-.026,0-.081.017-.175.126l-1.411,1.619a1.218,1.218,0,0,0-.384.9,1,1,0,0,0,.338.662,1.416,1.416,0,0,0,1.173.3l1.727-1.983c.2-.224.216-.3.215-.322a.219.219,0,0,0-.087-.144l-.06-.052.081-.095.84.732-.079.093-.032-.025c-.119-.092-.169-.1-.193-.1s-.07.023-.142.105l-2.09,2.4a1,1,0,0,0-.141.187.138.138,0,0,0,0,.095.317.317,0,0,0,.109.136l.032.028Zm-.5-.55.362.315h0a.221.221,0,0,1,.009-.151,1.01,1.01,0,0,1,.155-.209l2.09-2.4a.336.336,0,0,1,.2-.134.182.182,0,0,1,.055,0l-.44-.383a.219.219,0,0,1,.009.051c0,.05-.024.138-.237.381l-1.747,2.007-.016,0a1.5,1.5,0,0,1-1.256-.318,1.082,1.082,0,0,1-.366-.716,1.3,1.3,0,0,1,.4-.965l1.41-1.619a.36.36,0,0,1,.247-.155l.027,0-.427-.372a.143.143,0,0,1,.006.04.48.48,0,0,1-.149.265l-1.538,1.765a1.153,1.153,0,0,0-.325.872,1.243,1.243,0,0,0,.466.824,1.721,1.721,0,0,0,1.4.4l.109-.013Z" transform="translate(-957.995 -507.065)" fill="#956134" stroke="#956134" stroke-miterlimit="10" stroke-width="0.25"/>
        </g>
        <g id="Group_19" data-name="Group 19" transform="translate(80.79 17.08)">
          <path id="Path_65" data-name="Path 65" d="M969.4,517.067l.032-.024,1.085,1.429a4.314,4.314,0,0,1,.568.926,1.913,1.913,0,0,1,.149.755,1.639,1.639,0,0,1-.187.729,1.833,1.833,0,0,1-.535.623,2.083,2.083,0,0,1-.778.366,2.2,2.2,0,0,1-.861.042,1.677,1.677,0,0,1-.718-.27,3.713,3.713,0,0,1-.725-.773l-1.111-1.463.031-.024.029.038a.181.181,0,0,0,.206.08,1.289,1.289,0,0,0,.359-.216l2.267-1.721q.253-.192.274-.276A.29.29,0,0,0,969.4,517.067Zm.772,1.086-.363-.477-2.416,1.834a.744.744,0,0,0-.28.335.558.558,0,0,0,.039.385,2.571,2.571,0,0,0,.33.539,1.858,1.858,0,0,0,1.382.888,1.948,1.948,0,0,0,1.249-.39,1.805,1.805,0,0,0,.712-1.305A2.594,2.594,0,0,0,970.169,518.153Z" transform="translate(-966.256 -516.983)" fill="#956134" stroke="#956134" stroke-miterlimit="10" stroke-width="0.25"/>
          <path id="Path_66" data-name="Path 66" d="M969.16,521.95a2.11,2.11,0,0,1-.326-.025,1.726,1.726,0,0,1-.736-.277,3.742,3.742,0,0,1-.735-.783l-1.136-1.5.1-.076.055.072a.139.139,0,0,0,.161.065,1.262,1.262,0,0,0,.345-.21l2.267-1.721c.218-.166.253-.231.257-.252s0-.085-.077-.185l-.026-.034.1-.076,1.111,1.463a4.415,4.415,0,0,1,.574.936,1.981,1.981,0,0,1,.151.772,1.684,1.684,0,0,1-.192.747,1.88,1.88,0,0,1-.547.637,2.142,2.142,0,0,1-.794.373A2.317,2.317,0,0,1,969.16,521.95Zm-2.717-2.436.987,1.3a3.675,3.675,0,0,0,.716.763,1.642,1.642,0,0,0,.7.263,2.156,2.156,0,0,0,.845-.042,2.065,2.065,0,0,0,.762-.358,1.807,1.807,0,0,0,.523-.608,1.605,1.605,0,0,0,.183-.71,1.873,1.873,0,0,0-.146-.739,4.261,4.261,0,0,0-.562-.917l-.179-.237a2.532,2.532,0,0,1,.564,1.706,1.85,1.85,0,0,1-.729,1.334,2.012,2.012,0,0,1-1.275.4,1.9,1.9,0,0,1-1.415-.9,2.559,2.559,0,0,1-.335-.548.6.6,0,0,1-.04-.414.786.786,0,0,1,.295-.356l2.448-1.858-.286-.376a.17.17,0,0,1,0,.056c-.011.045-.054.12-.288.3l-2.268,1.721a1.317,1.317,0,0,1-.374.224A.213.213,0,0,1,966.443,519.514Zm3.326-1.808-2.383,1.809a.707.707,0,0,0-.266.314.522.522,0,0,0,.038.356,2.52,2.52,0,0,0,.325.53,1.828,1.828,0,0,0,1.349.871,1.9,1.9,0,0,0,1.222-.381,1.772,1.772,0,0,0,.7-1.276,2.568,2.568,0,0,0-.645-1.778Z" transform="translate(-966.227 -516.954)" fill="#956134" stroke="#956134" stroke-miterlimit="10" stroke-width="0.25"/>
        </g>
        <g id="Group_20" data-name="Group 20" transform="translate(85.888 25.337)">
          <path id="Path_67" data-name="Path 67" d="M977.852,530.252l-.036.018a.4.4,0,0,0-.1-.141.155.155,0,0,0-.134-.057,1.437,1.437,0,0,0-.266.116l-2.67,1.367a1.28,1.28,0,0,0-.257.153.185.185,0,0,0-.045.11.408.408,0,0,0,.061.2l-.036.018-.476-.928.036-.018c.059.116.119.177.178.183a.764.764,0,0,0,.327-.114l2.644-1.354a.8.8,0,0,0,.3-.214c.035-.058.022-.14-.042-.247l.036-.018Z" transform="translate(-973.839 -529.267)" fill="#956134" stroke="#956134" stroke-miterlimit="10" stroke-width="0.25"/>
          <path id="Path_68" data-name="Path 68" d="M974.325,532.063l-.514-1,.111-.057.019.038c.069.133.12.157.145.16a.7.7,0,0,0,.3-.11l2.644-1.354a.731.731,0,0,0,.283-.2c.026-.042.012-.112-.042-.2l-.023-.039.114-.058.514,1-.115.058-.017-.044a.369.369,0,0,0-.089-.126c-.036-.036-.071-.053-.1-.046a1.353,1.353,0,0,0-.254.112l-2.67,1.367a1.2,1.2,0,0,0-.245.144.14.14,0,0,0-.034.085.369.369,0,0,0,.056.174l.02.038Zm-.316-.8.267.522a.219.219,0,0,1,.056-.129,1.076,1.076,0,0,1,.268-.163l2.67-1.366a1.387,1.387,0,0,1,.276-.12.168.168,0,0,1,.134.036l-.268-.522a.163.163,0,0,1-.023.067.825.825,0,0,1-.317.229l-2.644,1.354a.82.82,0,0,1-.351.119A.165.165,0,0,1,974.009,531.26Z" transform="translate(-973.811 -529.239)" fill="#956134" stroke="#956134" stroke-miterlimit="10" stroke-width="0.25"/>
        </g>
        <g id="Group_21" data-name="Group 21" transform="translate(88.774 32.06)">
          <path id="Path_69" data-name="Path 69" d="M982.215,540.841a1.87,1.87,0,0,1-.085,1.434,1.658,1.658,0,0,1-1.042.865,2.307,2.307,0,0,1-1.727-.1,2.077,2.077,0,0,1-1.1-1.343,1.791,1.791,0,0,1,1.186-2.294,2.389,2.389,0,0,1,1.057-.062,2.077,2.077,0,0,1,1.709,1.505Zm-3.659,1.1a1.632,1.632,0,0,0,.44.7,1.6,1.6,0,0,0,.75.417,1.5,1.5,0,0,0,.813-.013,1.847,1.847,0,0,0,.9-.592,2.154,2.154,0,0,0,.464-.967,1.893,1.893,0,0,0-.011-.934,1.513,1.513,0,0,0-.727-.88,1.422,1.422,0,0,0-1.179-.135,2.09,2.09,0,0,0-1.227.98A1.73,1.73,0,0,0,978.556,541.944Z" transform="translate(-978.126 -539.263)" fill="#956134" stroke="#956134" stroke-miterlimit="10" stroke-width="0.25"/>
          <path id="Path_70" data-name="Path 70" d="M980.314,543.28a2.271,2.271,0,0,1-.991-.227,2.123,2.123,0,0,1-1.121-1.369,1.833,1.833,0,0,1,1.214-2.347,2.457,2.457,0,0,1,1.076-.065,2.12,2.12,0,0,1,1.743,1.536h0a1.914,1.914,0,0,1-.087,1.465,1.7,1.7,0,0,1-1.067.886A2.615,2.615,0,0,1,980.314,543.28Zm-.235-3.953a2.18,2.18,0,0,0-.639.092,1.727,1.727,0,0,0-1.042.847,1.745,1.745,0,0,0-.116,1.395,2.045,2.045,0,0,0,1.077,1.317,2.275,2.275,0,0,0,1.7.1,1.624,1.624,0,0,0,1.016-.844,1.837,1.837,0,0,0,.082-1.4h0a2.034,2.034,0,0,0-1.675-1.477A2.763,2.763,0,0,0,980.079,539.327Zm.042,3.8a1.707,1.707,0,0,1-.4-.05,1.652,1.652,0,0,1-.77-.427,1.683,1.683,0,0,1-.45-.716h0a1.777,1.777,0,0,1,.226-1.459,2.14,2.14,0,0,1,1.251-1,1.468,1.468,0,0,1,1.212.138,1.563,1.563,0,0,1,.746.905,1.95,1.95,0,0,1,.012.954,2.21,2.21,0,0,1-.474.985,1.9,1.9,0,0,1-.919.606A1.456,1.456,0,0,1,980.121,543.13Zm-1.544-1.219a1.6,1.6,0,0,0,.429.68,1.572,1.572,0,0,0,.731.406,1.482,1.482,0,0,0,.79-.012,1.815,1.815,0,0,0,.878-.579,2.134,2.134,0,0,0,.456-.948,1.867,1.867,0,0,0-.009-.913,1.486,1.486,0,0,0-.708-.857,1.391,1.391,0,0,0-1.146-.131,2.06,2.06,0,0,0-1.2.962,1.7,1.7,0,0,0-.218,1.391Z" transform="translate(-978.105 -539.242)" fill="#956134" stroke="#956134" stroke-miterlimit="10" stroke-width="0.25"/>
        </g>
      </g>
      <g id="Group_33" data-name="Group 33" transform="translate(847.817 633.278)">
        <g id="Group_32" data-name="Group 32">
          <g id="Group_23" data-name="Group 23" transform="translate(0 0.601)">
            <path id="Path_71" data-name="Path 71" d="M855.353,704.7l-.349.389-.019-.026s.026-.069.071-.2a1.053,1.053,0,0,0,.057-.409,1.064,1.064,0,0,0-.122-.419.876.876,0,0,0-.5-.46.748.748,0,0,0-.6.045.645.645,0,0,0-.284.27,1,1,0,0,0-.055.546q.1.628.107.872a1.281,1.281,0,0,1-.111.539.937.937,0,0,1-.462.47,1.208,1.208,0,0,1-.287.105.992.992,0,0,1-.3.022,1.232,1.232,0,0,1-.307-.064.934.934,0,0,1-.257-.132,1.277,1.277,0,0,1-.249-.3c-.1-.144-.157-.241-.181-.289l-.479-.927,1.01-.521.018.036a1.015,1.015,0,0,0-.579.6,1.228,1.228,0,0,0,.173.822,1.091,1.091,0,0,0,.557.565.745.745,0,0,0,.624-.031.627.627,0,0,0,.264-.238.833.833,0,0,0,.106-.338,3,3,0,0,0-.048-.665,3.257,3.257,0,0,1-.044-.686.907.907,0,0,1,.177-.433,1.054,1.054,0,0,1,.374-.331,1.027,1.027,0,0,1,.819-.071,1.114,1.114,0,0,1,.649.586,2.253,2.253,0,0,1,.155.4,2.094,2.094,0,0,1,.064.253A.055.055,0,0,0,855.353,704.7Z" transform="translate(-850.972 -703.341)" fill="#956134" stroke="rgba(0,0,0,0)" stroke-width="1"/>
            <path id="Path_72" data-name="Path 72" d="M852.555,706.463c-.028,0-.056,0-.084,0a1.331,1.331,0,0,1-.318-.066.969.969,0,0,1-.268-.139,1.291,1.291,0,0,1-.259-.305c-.1-.147-.159-.243-.185-.292l-.5-.965,1.084-.56.057.11-.037.02a.977.977,0,0,0-.557.569,1.2,1.2,0,0,0,.169.792,1.055,1.055,0,0,0,.534.545.706.706,0,0,0,.589-.029.59.59,0,0,0,.246-.221.793.793,0,0,0,.1-.322,2.969,2.969,0,0,0-.048-.654,3.291,3.291,0,0,1-.044-.7.938.938,0,0,1,.184-.453,1.1,1.1,0,0,1,.388-.344,1.076,1.076,0,0,1,.852-.074,1.16,1.16,0,0,1,.673.607,2.271,2.271,0,0,1,.157.406,1.469,1.469,0,0,1,.067.264l.011.025-.018.026-.383.427-.079-.1.028-.017c.007-.019.024-.067.066-.188a1.015,1.015,0,0,0,.054-.392,1,1,0,0,0-.118-.4.832.832,0,0,0-.471-.439.709.709,0,0,0-.567.042.61.61,0,0,0-.266.253.97.97,0,0,0-.051.522c.064.416.1.71.107.874a1.325,1.325,0,0,1-.115.557.983.983,0,0,1-.481.491,1.26,1.26,0,0,1-.3.11A1.046,1.046,0,0,1,852.555,706.463Zm-1.5-1.734.459.889c.023.046.084.142.179.285a1.256,1.256,0,0,0,.239.285.9.9,0,0,0,.245.126,1.183,1.183,0,0,0,.3.061.946.946,0,0,0,.289-.02,1.163,1.163,0,0,0,.277-.1.9.9,0,0,0,.442-.448,1.228,1.228,0,0,0,.107-.521c-.007-.161-.043-.453-.106-.868a1.039,1.039,0,0,1,.06-.573.7.7,0,0,1,.3-.288.788.788,0,0,1,.632-.048.917.917,0,0,1,.52.481,1.056,1.056,0,0,1,.068.862l-.027.077.237-.263v-.009a2.018,2.018,0,0,0-.063-.242,2.216,2.216,0,0,0-.151-.391,1.077,1.077,0,0,0-.625-.565.99.99,0,0,0-.786.069,1.013,1.013,0,0,0-.359.317.864.864,0,0,0-.169.413,3.206,3.206,0,0,0,.044.676,3.025,3.025,0,0,1,.048.675.888.888,0,0,1-.112.355.676.676,0,0,1-.28.255.789.789,0,0,1-.657.032,1.136,1.136,0,0,1-.581-.585,1.274,1.274,0,0,1-.176-.851.782.782,0,0,1,.265-.4Z" transform="translate(-850.945 -703.32)" fill="#956134" stroke="rgba(0,0,0,0)" stroke-width="1"/>
          </g>
          <g id="Group_24" data-name="Group 24" transform="translate(5.957 9.04)">
            <path id="Path_73" data-name="Path 73" d="M863.6,716.778l-.031.025a.406.406,0,0,0-.126-.118.152.152,0,0,0-.142-.029,1.409,1.409,0,0,0-.236.167l-2.339,1.878a1.283,1.283,0,0,0-.22.2.179.179,0,0,0-.022.117.411.411,0,0,0,.1.181l-.032.025-.653-.813.031-.025q.123.153.212.143a.776.776,0,0,0,.3-.177l2.315-1.86a.8.8,0,0,0,.251-.269q.034-.1-.091-.234l.032-.025Z" transform="translate(-859.837 -715.905)" fill="#956134" stroke="rgba(0,0,0,0)" stroke-width="1"/>
            <path id="Path_74" data-name="Path 74" d="M860.514,719.257l-.706-.879.1-.079.026.033c.1.118.149.129.174.128a.709.709,0,0,0,.276-.169l2.316-1.86c.172-.137.224-.212.238-.251s-.011-.112-.083-.191l-.03-.034.1-.079.706.879-.1.082-.025-.04a.36.36,0,0,0-.113-.106c-.043-.028-.077-.037-.1-.025a1.452,1.452,0,0,0-.226.161l-2.339,1.878a1.135,1.135,0,0,0-.21.191.141.141,0,0,0-.017.09.371.371,0,0,0,.091.159l.027.034Zm-.471-.723.366.456a.222.222,0,0,1,.029-.138,1.065,1.065,0,0,1,.23-.214l2.339-1.878a1.413,1.413,0,0,1,.246-.173.165.165,0,0,1,.138.008l-.367-.457a.173.173,0,0,1-.009.07.822.822,0,0,1-.265.288l-2.316,1.86a.787.787,0,0,1-.319.187A.143.143,0,0,1,860.043,718.534Z" transform="translate(-859.808 -715.876)" fill="#956134" stroke="rgba(0,0,0,0)" stroke-width="1"/>
          </g>
          <g id="Group_25" data-name="Group 25" transform="translate(13.179 15.515)">
            <path id="Path_75" data-name="Path 75" d="M875.468,727.568l.614.441-.023.032a.348.348,0,0,0-.237-.08c-.062.011-.136.075-.22.194l-2.074,2.892-.6-4.515-1.684,2.35a.705.705,0,0,0-.1.178.154.154,0,0,0,0,.109.719.719,0,0,0,.134.155l-.023.033-.61-.438.023-.032c.11.079.192.107.246.088a.734.734,0,0,0,.239-.249l1.54-2.149a1.4,1.4,0,0,0,.251-.518c.034-.156-.048-.3-.244-.426l.023-.033.6.428.563,4.243,1.607-2.242c.087-.121.118-.21.094-.267a.382.382,0,0,0-.138-.159Z" transform="translate(-870.582 -725.539)" fill="#956134" stroke="rgba(0,0,0,0)" stroke-width="1"/>
            <path id="Path_76" data-name="Path 76" d="M873.473,731.13l-.014-.106-.586-4.41-1.622,2.263a.639.639,0,0,0-.1.166.125.125,0,0,0,0,.08.689.689,0,0,0,.124.141l.026.026-.069.1-.68-.487.073-.1.034.025c.127.091.184.09.207.083s.088-.052.219-.235l1.54-2.149a1.381,1.381,0,0,0,.245-.5c.029-.14-.044-.265-.227-.383l-.037-.024.074-.1.647.464,0,.018.55,4.137,1.545-2.156c.1-.14.1-.2.089-.226a.345.345,0,0,0-.123-.141l-.035-.025.073-.1.683.489-.071.1-.035-.023a.319.319,0,0,0-.2-.073c-.035.006-.1.042-.193.176Zm-.544-4.739.014.106.586,4.409,2.011-2.805c.092-.128.173-.2.247-.21a.256.256,0,0,1,.069,0l-.272-.194.009.018c.031.073,0,.174-.1.309l-1.67,2.329-.014-.106-.561-4.225-.339-.243a.349.349,0,0,1,.043.258,1.46,1.46,0,0,1-.259.534l-1.54,2.149a.746.746,0,0,1-.259.265.146.146,0,0,1-.067.008l.254.181a.058.058,0,0,1-.009-.017.2.2,0,0,1,0-.14.722.722,0,0,1,.108-.19Z" transform="translate(-870.553 -725.51)" fill="#956134" stroke="rgba(0,0,0,0)" stroke-width="1"/>
          </g>
          <g id="Group_26" data-name="Group 26" transform="translate(25.167 21.963)">
            <path id="Path_77" data-name="Path 77" d="M892.323,735.869l.017.439-.038-.012a1.832,1.832,0,0,0-1.111-.934,1.783,1.783,0,0,0-1.373.073,1.544,1.544,0,0,0-.808.954,2.605,2.605,0,0,0-.073.98,2.044,2.044,0,0,0,.4,1.055,1.872,1.872,0,0,0,.99.671,2.715,2.715,0,0,0,.868.119,1.406,1.406,0,0,0,.714-.178l.03.02-.385.32q-.677-.058-.873-.091a4.3,4.3,0,0,1-.514-.13,2.315,2.315,0,0,1-1.512-1.063,1.929,1.929,0,0,1-.1-1.458,2.108,2.108,0,0,1,.564-.9,1.963,1.963,0,0,1,.979-.515,2.6,2.6,0,0,1,1.729.3,3.076,3.076,0,0,1,.346.235l.148.116Z" transform="translate(-888.411 -735.124)" fill="#956134" stroke="rgba(0,0,0,0)" stroke-width="1"/>
            <path id="Path_78" data-name="Path 78" d="M891.545,739.4h-.017c-.45-.039-.745-.07-.876-.092a4.258,4.258,0,0,1-.519-.132,2.36,2.36,0,0,1-1.538-1.085,1.982,1.982,0,0,1-.107-1.489,2.17,2.17,0,0,1,.575-.923,2.013,2.013,0,0,1,1-.526,2.651,2.651,0,0,1,1.76.3,3.04,3.04,0,0,1,.349.239l.148.115a.063.063,0,0,1,.02.023l0,.017.019.5-.111-.036-.008-.015a1.8,1.8,0,0,0-1.086-.914,1.744,1.744,0,0,0-1.341.071,1.507,1.507,0,0,0-.788.928,2.6,2.6,0,0,0-.071.964,2.009,2.009,0,0,0,.39,1.033,1.842,1.842,0,0,0,.969.656,2.6,2.6,0,0,0,.854.117,1.367,1.367,0,0,0,.693-.172l.024-.014.1.067Zm-1.025-4.21a2.14,2.14,0,0,0-.44.046,1.931,1.931,0,0,0-.958.5,2.07,2.07,0,0,0-.553.887,1.9,1.9,0,0,0,.1,1.427,2.285,2.285,0,0,0,1.487,1.04,4.273,4.273,0,0,0,.508.13c.128.021.415.051.853.089l.2-.17a1.7,1.7,0,0,1-.549.094,2.688,2.688,0,0,1-.881-.121,1.921,1.921,0,0,1-1.012-.686,2.094,2.094,0,0,1-.406-1.076,2.661,2.661,0,0,1,.075-1,1.588,1.588,0,0,1,.83-.979,1.825,1.825,0,0,1,1.4-.076,1.867,1.867,0,0,1,1.089.87l-.012-.3-.141-.11a3,3,0,0,0-.341-.232,2.33,2.33,0,0,0-.517-.221A2.514,2.514,0,0,0,890.52,735.188Z" transform="translate(-888.391 -735.103)" fill="#956134" stroke="rgba(0,0,0,0)" stroke-width="1"/>
          </g>
          <g id="Group_27" data-name="Group 27" transform="translate(37.382 23.868)">
            <path id="Path_79" data-name="Path 79" d="M906.819,738.05l0-.045,2.455.12-.027.538-.04,0a1.02,1.02,0,0,0-.116-.359.428.428,0,0,0-.264-.066l-1.289-.063-.085,1.752,1.2.058a.463.463,0,0,0,.226-.022.116.116,0,0,0,.055-.094l.04,0-.018.368-.04,0a.135.135,0,0,0-.057-.106.416.416,0,0,0-.18-.036l-1.227-.06-.059,1.206a1.1,1.1,0,0,0,.031.4.243.243,0,0,0,.153.159,1.345,1.345,0,0,0,.331.047l.688.034a2.293,2.293,0,0,0,.421,0,.312.312,0,0,0,.159-.082.6.6,0,0,0,.112-.289l.04,0-.026.536-2.669-.131,0-.04a.447.447,0,0,0,.208-.042c.048-.027.075-.1.081-.223l.154-3.152a.858.858,0,0,0-.022-.3Q907.02,738.059,906.819,738.05Z" transform="translate(-906.586 -737.96)" fill="#956134" stroke="rgba(0,0,0,0)" stroke-width="1"/>
            <path id="Path_80" data-name="Path 80" d="M909.318,742.063l-.043,0-2.711-.132.006-.122h.04a.413.413,0,0,0,.187-.036c.02-.011.053-.05.06-.188l.155-3.152a.79.79,0,0,0-.02-.287c-.015-.041-.083-.066-.2-.071l-.042,0,.007-.13,2.539.124-.03.624-.116-.006-.006-.032a.909.909,0,0,0-.107-.339c-.012-.013-.058-.044-.234-.052l-1.246-.061-.081,1.668,1.153.056a.439.439,0,0,0,.2-.015.075.075,0,0,0,.036-.062l0-.04.122.006-.021.453-.118-.006,0-.035a.1.1,0,0,0-.038-.075.36.36,0,0,0-.16-.03l-1.185-.058-.057,1.163a1.078,1.078,0,0,0,.028.38.2.2,0,0,0,.126.133,1.292,1.292,0,0,0,.319.044l.688.034a2.069,2.069,0,0,0,.411,0,.262.262,0,0,0,.138-.071.527.527,0,0,0,.1-.266l.007-.036.118.005Zm-2.5-.208,2.423.119.014-.29a.33.33,0,0,1-.071.116.353.353,0,0,1-.18.093,2.419,2.419,0,0,1-.431,0l-.688-.034a1.375,1.375,0,0,1-.342-.048.285.285,0,0,1-.179-.185,1.144,1.144,0,0,1-.033-.413l.061-1.248,1.27.062a.459.459,0,0,1,.2.041.156.156,0,0,1,.038.034l.007-.148a.147.147,0,0,1-.025.018c-.026.017-.081.037-.251.029l-1.238-.06.089-1.837,1.331.065a.444.444,0,0,1,.293.079.541.541,0,0,1,.091.225l.017-.333-2.2-.108a.149.149,0,0,1,.065.077.888.888,0,0,1,.025.321l-.155,3.152c-.007.139-.04.223-.1.258A.156.156,0,0,1,906.814,741.855Z" transform="translate(-906.564 -737.938)" fill="#956134" stroke="rgba(0,0,0,0)" stroke-width="1"/>
          </g>
          <g id="Group_28" data-name="Group 28" transform="translate(57.703 21.657)">
            <path id="Path_81" data-name="Path 81" d="M940.344,737.5l.026.638-2.44.814-.031-.093a6.7,6.7,0,0,0,.946-1.922,2.333,2.333,0,0,0,0-1.29,1.042,1.042,0,0,0-.458-.62.767.767,0,0,0-.639-.058,1,1,0,0,0-.506.393,1.5,1.5,0,0,0-.257.618l-.115-.017a1.755,1.755,0,0,1,.358-.776,1.392,1.392,0,0,1,.618-.4,1.124,1.124,0,0,1,.891.034,1.037,1.037,0,0,1,.535.618,1.717,1.717,0,0,1-.023.97,7.218,7.218,0,0,1-.647,1.5l-.293.546,1.551-.518a.792.792,0,0,0,.3-.146.707.707,0,0,0,.132-.276Z" transform="translate(-936.824 -734.67)" fill="#956134" stroke="rgba(0,0,0,0)" stroke-width="1"/>
            <path id="Path_82" data-name="Path 82" d="M937.878,738.986l-.051-.153.011-.017a6.692,6.692,0,0,0,.941-1.909,2.3,2.3,0,0,0,.005-1.267,1,1,0,0,0-.438-.6.728.728,0,0,0-.6-.056.963.963,0,0,0-.484.376,1.474,1.474,0,0,0-.25.6l-.007.041-.2-.031.01-.045a1.818,1.818,0,0,1,.368-.794,1.443,1.443,0,0,1,.637-.41,1.164,1.164,0,0,1,.923.037,1.081,1.081,0,0,1,.557.642,1.762,1.762,0,0,1-.021.993,7.291,7.291,0,0,1-.651,1.512l-.243.452,1.45-.483a.715.715,0,0,0,.278-.136.651.651,0,0,0,.122-.258l.006-.021.125-.042.029.727-.03.009Zm.042-.141.011.034,2.369-.79-.02-.494a.591.591,0,0,1-.114.209.815.815,0,0,1-.312.157l-1.652.551.343-.64a7.218,7.218,0,0,0,.643-1.493,1.685,1.685,0,0,0,.023-.946.988.988,0,0,0-.514-.593,1.089,1.089,0,0,0-.858-.032,1.377,1.377,0,0,0-.6.386,1.694,1.694,0,0,0-.338.713l.028,0a1.561,1.561,0,0,1,.258-.593,1.032,1.032,0,0,1,.526-.408.808.808,0,0,1,.673.061,1.088,1.088,0,0,1,.476.644,2.38,2.38,0,0,1,0,1.314A6.743,6.743,0,0,1,937.921,738.844Z" transform="translate(-936.799 -734.649)" fill="#956134" stroke="rgba(0,0,0,0)" stroke-width="1"/>
          </g>
          <g id="Group_29" data-name="Group 29" transform="translate(67.967 16.696)">
            <path id="Path_83" data-name="Path 83" d="M954.81,730.942a1.122,1.122,0,0,1-1.066.122,2.244,2.244,0,0,1-1.061-.912,2.786,2.786,0,0,1-.55-1.541,1.217,1.217,0,0,1,.516-1.09,1.121,1.121,0,0,1,.625-.192,1.362,1.362,0,0,1,.748.241,2.642,2.642,0,0,1,.75.772,2.851,2.851,0,0,1,.539,1.495A1.183,1.183,0,0,1,954.81,730.942Zm.069-.22a.714.714,0,0,0,.255-.634,2.1,2.1,0,0,0-.442-1.11,3.878,3.878,0,0,0-1.134-1.169.862.862,0,0,0-.983-.069.7.7,0,0,0-.272.658,2.262,2.262,0,0,0,.463,1.118,3.666,3.666,0,0,0,1.121,1.129A.883.883,0,0,0,954.879,730.723Z" transform="translate(-952.091 -727.288)" fill="#956134" stroke="rgba(0,0,0,0)" stroke-width="1"/>
            <path id="Path_84" data-name="Path 84" d="M954.158,731.167a1.313,1.313,0,0,1-.448-.083,2.3,2.3,0,0,1-1.082-.928,2.84,2.84,0,0,1-.557-1.563,1.263,1.263,0,0,1,.535-1.126,1.169,1.169,0,0,1,.647-.2h.02a1.425,1.425,0,0,1,.751.247,2.714,2.714,0,0,1,.762.784,2.9,2.9,0,0,1,.546,1.518,1.229,1.229,0,0,1-.519,1.141h0A1.151,1.151,0,0,1,954.158,731.167Zm-.885-3.815h-.018a1.08,1.08,0,0,0-.6.183,1.183,1.183,0,0,0-.5,1.055,2.756,2.756,0,0,0,.543,1.516,2.22,2.22,0,0,0,1.04.9,1.087,1.087,0,0,0,1.028-.117h0a1.151,1.151,0,0,0,.482-1.067,2.821,2.821,0,0,0-.532-1.473,2.635,2.635,0,0,0-.737-.76A1.338,1.338,0,0,0,953.272,727.352Zm1.2,3.512a1.242,1.242,0,0,1-.624-.2,3.705,3.705,0,0,1-1.135-1.142,2.31,2.31,0,0,1-.471-1.141.749.749,0,0,1,.29-.694.9.9,0,0,1,1.028.067,3.949,3.949,0,0,1,1.147,1.182,2.149,2.149,0,0,1,.45,1.134.753.753,0,0,1-.274.669h0A.718.718,0,0,1,954.469,730.864Zm-1.518-3.225a.652.652,0,0,0-.374.117.66.66,0,0,0-.253.622,2.235,2.235,0,0,0,.456,1.1,3.634,3.634,0,0,0,1.108,1.117.847.847,0,0,0,.945.077.678.678,0,0,0,.236-.6,2.067,2.067,0,0,0-.435-1.086,3.852,3.852,0,0,0-1.12-1.156A1.107,1.107,0,0,0,952.951,727.639Z" transform="translate(-952.07 -727.267)" fill="#956134" stroke="rgba(0,0,0,0)" stroke-width="1"/>
          </g>
          <g id="Group_30" data-name="Group 30" transform="translate(76 9.395)">
            <path id="Path_85" data-name="Path 85" d="M967.963,717.941l.351.533-1.669,1.956-.075-.064a6.679,6.679,0,0,0-.181-2.134,2.332,2.332,0,0,0-.663-1.108,1.041,1.041,0,0,0-.711-.295.771.771,0,0,0-.578.279,1,1,0,0,0-.23.6,1.51,1.51,0,0,0,.1.661l-.107.044a1.76,1.76,0,0,1-.094-.849,1.4,1.4,0,0,1,.325-.66,1.121,1.121,0,0,1,.781-.431,1.035,1.035,0,0,1,.778.253,1.716,1.716,0,0,1,.48.842,7.227,7.227,0,0,1,.222,1.62l.03.619,1.061-1.243a.8.8,0,0,0,.178-.278.71.71,0,0,0-.03-.3Z" transform="translate(-964.043 -716.426)" fill="#956134" stroke="rgba(0,0,0,0)" stroke-width="1"/>
            <path id="Path_86" data-name="Path 86" d="M966.628,720.469l-.122-.1v-.021a6.682,6.682,0,0,0-.179-2.12,2.306,2.306,0,0,0-.65-1.088,1.007,1.007,0,0,0-.682-.285.735.735,0,0,0-.548.265.969.969,0,0,0-.22.573,1.463,1.463,0,0,0,.1.643l.016.039-.188.077-.015-.044a1.813,1.813,0,0,1-.095-.87,1.439,1.439,0,0,1,.334-.68,1.166,1.166,0,0,1,.81-.446,1.077,1.077,0,0,1,.809.263,1.766,1.766,0,0,1,.494.862,7.3,7.3,0,0,1,.223,1.63l.025.513.992-1.163a.723.723,0,0,0,.168-.259.651.651,0,0,0-.03-.285l-.005-.021.086-.1.4.606-.021.024Zm-.036-.142.027.023,1.621-1.9-.272-.413a.584.584,0,0,1,.01.237.816.816,0,0,1-.187.3l-1.13,1.325-.036-.726a7.206,7.206,0,0,0-.22-1.61,1.683,1.683,0,0,0-.468-.821.987.987,0,0,0-.747-.243,1.088,1.088,0,0,0-.752.415,1.359,1.359,0,0,0-.314.641,1.675,1.675,0,0,0,.078.784l.026-.011a1.563,1.563,0,0,1-.086-.641,1.051,1.051,0,0,1,.24-.622.815.815,0,0,1,.609-.294,1.1,1.1,0,0,1,.741.305,2.38,2.38,0,0,1,.675,1.128A6.716,6.716,0,0,1,966.592,720.327Z" transform="translate(-964.022 -716.405)" fill="#956134" stroke="rgba(0,0,0,0)" stroke-width="1"/>
          </g>
          <g id="Group_31" data-name="Group 31" transform="translate(82.2)">
            <path id="Path_87" data-name="Path 87" d="M977.02,705a1.123,1.123,0,0,1-.858.645,2.248,2.248,0,0,1-1.376-.249,2.78,2.78,0,0,1-1.255-1.048,1.222,1.222,0,0,1-.108-1.2,1.129,1.129,0,0,1,.442-.481,1.356,1.356,0,0,1,.766-.171,2.659,2.659,0,0,1,1.038.285,2.846,2.846,0,0,1,1.222,1.016A1.183,1.183,0,0,1,977.02,705Zm-.052-.224a.711.711,0,0,0-.1-.675,2.107,2.107,0,0,0-.944-.733,3.88,3.88,0,0,0-1.57-.433.863.863,0,0,0-.882.439.706.706,0,0,0,.1.7,2.272,2.272,0,0,0,.966.73,3.667,3.667,0,0,0,1.539.406A.882.882,0,0,0,976.967,704.774Z" transform="translate(-973.269 -702.447)" fill="#956134" stroke="rgba(0,0,0,0)" stroke-width="1"/>
            <path id="Path_88" data-name="Path 88" d="M975.842,705.693a2.594,2.594,0,0,1-1.1-.28,2.835,2.835,0,0,1-1.273-1.066,1.264,1.264,0,0,1-.11-1.242,1.178,1.178,0,0,1,.458-.5,1.406,1.406,0,0,1,.79-.178,2.729,2.729,0,0,1,1.055.29,2.9,2.9,0,0,1,1.239,1.032,1.228,1.228,0,0,1,.131,1.247h0a1.168,1.168,0,0,1-.888.669A1.649,1.649,0,0,1,975.842,705.693Zm-1.3-3.181a1.284,1.284,0,0,0-.679.166,1.09,1.09,0,0,0-.426.463,1.186,1.186,0,0,0,.106,1.163,2.756,2.756,0,0,0,1.237,1.032,2.219,2.219,0,0,0,1.35.246,1.087,1.087,0,0,0,.827-.622h0a1.146,1.146,0,0,0-.125-1.165,2.807,2.807,0,0,0-1.2-1,2.634,2.634,0,0,0-1.022-.282Zm1.511,2.722h0a3.726,3.726,0,0,1-1.557-.409,2.321,2.321,0,0,1-.983-.746.749.749,0,0,1-.1-.745.894.894,0,0,1,.9-.463h.024a3.936,3.936,0,0,1,1.587.437,2.151,2.151,0,0,1,.962.749.753.753,0,0,1,.1.715A.923.923,0,0,1,976.057,705.233Zm-1.749-2.279a.808.808,0,0,0-.82.415.662.662,0,0,0,.1.663,2.239,2.239,0,0,0,.948.714,3.635,3.635,0,0,0,1.521.4h0a.845.845,0,0,0,.851-.413h0a.672.672,0,0,0-.1-.636,2.075,2.075,0,0,0-.925-.716,3.862,3.862,0,0,0-1.552-.429Z" transform="translate(-973.248 -702.426)" fill="#956134" stroke="rgba(0,0,0,0)" stroke-width="1"/>
          </g>
        </g>
      </g>
    </g>
  </g>
</svg>
